<?xml version='1.0' encoding='utf-8'?>
<svg width="434.2871417536mm" height="513.0000000003mm" viewBox="-47.4919297211 -73.4682936508 71.1266538921 84.0180837483" version="1.1" xmlns="http://www.w3.org/2000/svg">
  <g transform="scale(1,-1)" stroke-linecap="round">
    <g fill="none" stroke="rgb(64,192,64)" stroke-width="0.16377794102973964" id="Visible">
      <line x1="-32.2474006255" y1="59.7701189236" x2="-32.0722361318" y2="59.8073677649" />
      <line x1="-32.7618124318" y1="59.8302055487" x2="-32.2474006255" y2="59.7701189236" />
      <line x1="-33.2916194677" y1="60.0680462222" x2="-32.7618124318" y2="59.8302055487" />
      <line x1="-33.806031274" y1="60.4698185087" x2="-33.2916194677" y2="60.0680462222" />
      <line x1="-34.2751521064" y1="61.0121728631" x2="-33.806031274" y2="60.4698185087" />
      <line x1="-34.6717183672" y1="61.6635896219" x2="-34.2751521064" y2="61.0121728631" />
      <line x1="-34.9726830668" y1="62.3862108107" x2="-34.6717183672" y2="61.6635896219" />
      <line x1="-35.160555231" y1="63.1380403128" x2="-34.9726830668" y2="62.3862108107" />
      <line x1="-35.2244164122" y1="63.8753845302" x2="-35.160555231" y2="63.1380403128" />
      <line x1="-35.160555231" y1="64.5553916972" x2="-35.2244164122" y2="63.8753845302" />
      <line x1="-34.9726830668" y1="65.138542269" x2="-35.160555231" y2="64.5553916972" />
      <line x1="-34.6717183672" y1="65.5909456539" x2="-34.9726830668" y2="65.138542269" />
      <line x1="-34.3495476922" y1="65.830899678" x2="-34.6717183672" y2="65.5909456539" />
      <line x1="-31.8743133436" y1="60.1218564957" x2="-31.5297584012" y2="60.3784824129" />
      <line x1="-32.3073479581" y1="60.0100170131" x2="-31.8743133436" y2="60.1218564957" />
      <line x1="-32.7821896255" y1="60.0654815902" x2="-32.3073479581" y2="60.0100170131" />
      <line x1="-33.271242274" y1="60.2850268273" x2="-32.7821896255" y2="60.0654815902" />
      <line x1="-33.7460839414" y1="60.6558935532" x2="-33.271242274" y2="60.2850268273" />
      <line x1="-34.1791185558" y1="61.1565283419" x2="-33.7460839414" y2="60.6558935532" />
      <line x1="-34.5451797197" y1="61.7578361192" x2="-34.1791185558" y2="61.1565283419" />
      <line x1="-34.8229932886" y1="62.4248710628" x2="-34.5451797197" y2="61.7578361192" />
      <line x1="-34.9964137478" y1="63.1188675262" x2="-34.8229932886" y2="62.4248710628" />
      <line x1="-35.0553625305" y1="63.7994929577" x2="-34.9964137478" y2="63.1188675262" />
      <line x1="-34.9964137478" y1="64.4271918811" x2="-35.0553625305" y2="63.7994929577" />
      <line x1="-34.8229932886" y1="64.9654847166" x2="-34.9964137478" y2="64.4271918811" />
      <line x1="-34.5451797197" y1="65.3830878411" x2="-34.8229932886" y2="64.9654847166" />
      <line x1="-34.1791185558" y1="65.6557316791" x2="-34.5451797197" y2="65.3830878411" />
      <line x1="-33.7460839414" y1="65.7675711617" x2="-34.1791185558" y2="65.6557316791" />
      <line x1="-33.5077664491" y1="65.7397341376" x2="-33.7460839414" y2="65.7675711617" />
      <line x1="-31.3807158379" y1="61.8031920877" x2="-31.2117576131" y2="61.929032858" />
      <line x1="-31.4295099541" y1="61.7822803101" x2="-31.3807158379" y2="61.8031920877" />
      <line x1="-31.6116676323" y1="61.7435443637" x2="-31.4295099541" y2="61.7822803101" />
      <line x1="-31.8649165215" y1="61.7731254714" x2="-31.6116676323" y2="61.7435443637" />
      <line x1="-32.1257446007" y1="61.8902162645" x2="-31.8649165215" y2="61.7731254714" />
      <line x1="-32.37899349" y1="62.0880118517" x2="-32.1257446007" y2="61.8902162645" />
      <line x1="-32.6099452844" y1="62.3550170723" x2="-32.37899349" y2="62.0880118517" />
      <line x1="-32.8051779051" y1="62.6757145536" x2="-32.6099452844" y2="62.3550170723" />
      <line x1="-32.9533451418" y1="63.0314665235" x2="-32.8051779051" y2="62.6757145536" />
      <line x1="-33.0458360534" y1="63.4015979706" x2="-32.9533451418" y2="63.0314665235" />
      <line x1="-33.0772754042" y1="63.7645982008" x2="-33.0458360534" y2="63.4015979706" />
      <line x1="-33.0458360534" y1="64.0993709599" x2="-33.0772754042" y2="63.7645982008" />
      <line x1="-32.9533451418" y1="64.3864604722" x2="-33.0458360534" y2="64.0993709599" />
      <line x1="-32.8051779051" y1="64.6091821386" x2="-32.9533451418" y2="64.3864604722" />
      <line x1="-32.6099452844" y1="64.7545921855" x2="-32.8051779051" y2="64.6091821386" />
      <line x1="-32.5611511682" y1="64.7755039631" x2="-32.6099452844" y2="64.7545921855" />
      <line x1="-32.37899349" y1="64.8142399096" x2="-32.5611511682" y2="64.7755039631" />
      <line x1="-32.3015472687" y1="64.8051936902" x2="-32.37899349" y2="64.8142399096" />
      <line x1="-15.3420124524" y1="52.1809616711" x2="-15.1668479587" y2="52.2182105124" />
      <line x1="-15.8564242587" y1="52.2410482962" x2="-15.3420124524" y2="52.1809616711" />
      <line x1="-16.3862312946" y1="52.4788889697" x2="-15.8564242587" y2="52.2410482962" />
      <line x1="-16.9006431009" y1="52.8806612562" x2="-16.3862312946" y2="52.4788889697" />
      <line x1="-17.3697639333" y1="53.4230156106" x2="-16.9006431009" y2="52.8806612562" />
      <line x1="-17.7663301941" y1="54.0744323693" x2="-17.3697639333" y2="53.4230156106" />
      <line x1="-18.0672948938" y1="54.7970535582" x2="-17.7663301941" y2="54.0744323693" />
      <line x1="-18.2551670579" y1="55.5488830603" x2="-18.0672948938" y2="54.7970535582" />
      <line x1="-18.3190282392" y1="56.2862272777" x2="-18.2551670579" y2="55.5488830603" />
      <line x1="-18.2551670579" y1="56.9662344447" x2="-18.3190282392" y2="56.2862272777" />
      <line x1="-18.0672948938" y1="57.5493850165" x2="-18.2551670579" y2="56.9662344447" />
      <line x1="-17.7663301941" y1="58.0017884014" x2="-18.0672948938" y2="57.5493850165" />
      <line x1="-17.4441595191" y1="58.2417424255" x2="-17.7663301941" y2="58.0017884014" />
      <line x1="-14.9689251706" y1="52.5326992432" x2="-14.6243702281" y2="52.7893251603" />
      <line x1="-15.4019597851" y1="52.4208597606" x2="-14.9689251706" y2="52.5326992432" />
      <line x1="-15.8768014524" y1="52.4763243377" x2="-15.4019597851" y2="52.4208597606" />
      <line x1="-16.3658541009" y1="52.6958695747" x2="-15.8768014524" y2="52.4763243377" />
      <line x1="-16.8406957683" y1="53.0667363007" x2="-16.3658541009" y2="52.6958695747" />
      <line x1="-17.2737303828" y1="53.5673710894" x2="-16.8406957683" y2="53.0667363007" />
      <line x1="-17.6397915466" y1="54.1686788667" x2="-17.2737303828" y2="53.5673710894" />
      <line x1="-17.9176051155" y1="54.8357138103" x2="-17.6397915466" y2="54.1686788667" />
      <line x1="-18.0910255747" y1="55.5297102737" x2="-17.9176051155" y2="54.8357138103" />
      <line x1="-18.1499743574" y1="56.2103357052" x2="-18.0910255747" y2="55.5297102737" />
      <line x1="-18.0910255747" y1="56.8380346286" x2="-18.1499743574" y2="56.2103357052" />
      <line x1="-17.9176051155" y1="57.3763274641" x2="-18.0910255747" y2="56.8380346286" />
      <line x1="-17.6397915466" y1="57.7939305886" x2="-17.9176051155" y2="57.3763274641" />
      <line x1="-17.2737303828" y1="58.0665744266" x2="-17.6397915466" y2="57.7939305886" />
      <line x1="-16.8406957683" y1="58.1784139092" x2="-17.2737303828" y2="58.0665744266" />
      <line x1="-16.602378276" y1="58.1505768851" x2="-16.8406957683" y2="58.1784139092" />
      <line x1="-14.4753276648" y1="54.2140348352" x2="-14.3063694401" y2="54.3398756055" />
      <line x1="-14.524121781" y1="54.1931230576" x2="-14.4753276648" y2="54.2140348352" />
      <line x1="-14.7062794592" y1="54.1543871111" x2="-14.524121781" y2="54.1931230576" />
      <line x1="-14.9595283485" y1="54.1839682189" x2="-14.7062794592" y2="54.1543871111" />
      <line x1="-15.2203564277" y1="54.301059012" x2="-14.9595283485" y2="54.1839682189" />
      <line x1="-15.4736053169" y1="54.4988545992" x2="-15.2203564277" y2="54.301059012" />
      <line x1="-15.7045571113" y1="54.7658598198" x2="-15.4736053169" y2="54.4988545992" />
      <line x1="-15.899789732" y1="55.0865573011" x2="-15.7045571113" y2="54.7658598198" />
      <line x1="-16.0479569688" y1="55.442309271" x2="-15.899789732" y2="55.0865573011" />
      <line x1="-16.1404478803" y1="55.8124407181" x2="-16.0479569688" y2="55.442309271" />
      <line x1="-16.1718872311" y1="56.1754409483" x2="-16.1404478803" y2="55.8124407181" />
      <line x1="-16.1404478803" y1="56.5102137074" x2="-16.1718872311" y2="56.1754409483" />
      <line x1="-16.0479569688" y1="56.7973032197" x2="-16.1404478803" y2="56.5102137074" />
      <line x1="-15.899789732" y1="57.0200248861" x2="-16.0479569688" y2="56.7973032197" />
      <line x1="-15.7045571113" y1="57.165434933" x2="-15.899789732" y2="57.0200248861" />
      <line x1="-15.6557629951" y1="57.1863467106" x2="-15.7045571113" y2="57.165434933" />
      <line x1="-15.4736053169" y1="57.2250826571" x2="-15.6557629951" y2="57.1863467106" />
      <line x1="-15.3961590956" y1="57.2160364376" x2="-15.4736053169" y2="57.2250826571" />
      <line x1="-15.3420124524" y1="12.7267213521" x2="-15.1668479587" y2="12.7639701935" />
      <line x1="-15.8564242587" y1="12.7868079773" x2="-15.3420124524" y2="12.7267213521" />
      <line x1="-16.3862312946" y1="13.0246486508" x2="-15.8564242587" y2="12.7868079773" />
      <line x1="-16.9006431009" y1="13.4264209372" x2="-16.3862312946" y2="13.0246486508" />
      <line x1="-17.3697639333" y1="13.9687752916" x2="-16.9006431009" y2="13.4264209372" />
      <line x1="-17.7663301941" y1="14.6201920504" x2="-17.3697639333" y2="13.9687752916" />
      <line x1="-18.0672948938" y1="15.3428132393" x2="-17.7663301941" y2="14.6201920504" />
      <line x1="-18.2551670579" y1="16.0946427413" x2="-18.0672948938" y2="15.3428132393" />
      <line x1="-18.3190282392" y1="16.8319869588" x2="-18.2551670579" y2="16.0946427413" />
      <line x1="-18.2551670579" y1="17.5119941258" x2="-18.3190282392" y2="16.8319869588" />
      <line x1="-18.0672948938" y1="18.0951446975" x2="-18.2551670579" y2="17.5119941258" />
      <line x1="-17.7663301941" y1="18.5475480825" x2="-18.0672948938" y2="18.0951446975" />
      <line x1="-17.4441595191" y1="18.7875021066" x2="-17.7663301941" y2="18.5475480825" />
      <line x1="-14.9689251706" y1="13.0784589242" x2="-14.6243702281" y2="13.3350848414" />
      <line x1="-15.4019597851" y1="12.9666194417" x2="-14.9689251706" y2="13.0784589242" />
      <line x1="-15.8768014524" y1="13.0220840187" x2="-15.4019597851" y2="12.9666194417" />
      <line x1="-16.3658541009" y1="13.2416292558" x2="-15.8768014524" y2="13.0220840187" />
      <line x1="-16.8406957683" y1="13.6124959817" x2="-16.3658541009" y2="13.2416292558" />
      <line x1="-17.2737303828" y1="14.1131307704" x2="-16.8406957683" y2="13.6124959817" />
      <line x1="-17.6397915466" y1="14.7144385477" x2="-17.2737303828" y2="14.1131307704" />
      <line x1="-17.9176051155" y1="15.3814734913" x2="-17.6397915466" y2="14.7144385477" />
      <line x1="-18.0910255747" y1="16.0754699548" x2="-17.9176051155" y2="15.3814734913" />
      <line x1="-18.1499743574" y1="16.7560953862" x2="-18.0910255747" y2="16.0754699548" />
      <line x1="-18.0910255747" y1="17.3837943096" x2="-18.1499743574" y2="16.7560953862" />
      <line x1="-17.9176051155" y1="17.9220871451" x2="-18.0910255747" y2="17.3837943096" />
      <line x1="-17.6397915466" y1="18.3396902697" x2="-17.9176051155" y2="17.9220871451" />
      <line x1="-17.2737303828" y1="18.6123341077" x2="-17.6397915466" y2="18.3396902697" />
      <line x1="-16.8406957683" y1="18.7241735902" x2="-17.2737303828" y2="18.6123341077" />
      <line x1="-16.602378276" y1="18.6963365662" x2="-16.8406957683" y2="18.7241735902" />
      <line x1="-14.4753276648" y1="14.7597945162" x2="-14.3063694401" y2="14.8856352866" />
      <line x1="-14.524121781" y1="14.7388827387" x2="-14.4753276648" y2="14.7597945162" />
      <line x1="-14.7062794592" y1="14.7001467922" x2="-14.524121781" y2="14.7388827387" />
      <line x1="-14.9595283485" y1="14.7297279" x2="-14.7062794592" y2="14.7001467922" />
      <line x1="-15.2203564277" y1="14.8468186931" x2="-14.9595283485" y2="14.7297279" />
      <line x1="-15.4736053169" y1="15.0446142802" x2="-15.2203564277" y2="14.8468186931" />
      <line x1="-15.7045571113" y1="15.3116195009" x2="-15.4736053169" y2="15.0446142802" />
      <line x1="-15.899789732" y1="15.6323169821" x2="-15.7045571113" y2="15.3116195009" />
      <line x1="-16.0479569688" y1="15.988068952" x2="-15.899789732" y2="15.6323169821" />
      <line x1="-16.1404478803" y1="16.3582003992" x2="-16.0479569688" y2="15.988068952" />
      <line x1="-16.1718872311" y1="16.7212006293" x2="-16.1404478803" y2="16.3582003992" />
      <line x1="-16.1404478803" y1="17.0559733884" x2="-16.1718872311" y2="16.7212006293" />
      <line x1="-16.0479569688" y1="17.3430629007" x2="-16.1404478803" y2="17.0559733884" />
      <line x1="-15.899789732" y1="17.5657845671" x2="-16.0479569688" y2="17.3430629007" />
      <line x1="-15.7045571113" y1="17.7111946141" x2="-15.899789732" y2="17.5657845671" />
      <line x1="-15.6557629951" y1="17.7321063916" x2="-15.7045571113" y2="17.7111946141" />
      <line x1="-15.4736053169" y1="17.7708423381" x2="-15.6557629951" y2="17.7321063916" />
      <line x1="-15.3961590956" y1="17.7617961187" x2="-15.4736053169" y2="17.7708423381" />
      <line x1="-32.2474006255" y1="20.3158786046" x2="-32.0722361318" y2="20.353127446" />
      <line x1="-32.7618124318" y1="20.3759652298" x2="-32.2474006255" y2="20.3158786046" />
      <line x1="-33.2916194677" y1="20.6138059033" x2="-32.7618124318" y2="20.3759652298" />
      <line x1="-33.806031274" y1="21.0155781897" x2="-33.2916194677" y2="20.6138059033" />
      <line x1="-34.2751521064" y1="21.5579325441" x2="-33.806031274" y2="21.0155781897" />
      <line x1="-34.6717183672" y1="22.2093493029" x2="-34.2751521064" y2="21.5579325441" />
      <line x1="-34.9726830668" y1="22.9319704918" x2="-34.6717183672" y2="22.2093493029" />
      <line x1="-35.160555231" y1="23.6837999938" x2="-34.9726830668" y2="22.9319704918" />
      <line x1="-35.2244164122" y1="24.4211442113" x2="-35.160555231" y2="23.6837999938" />
      <line x1="-35.160555231" y1="25.1011513783" x2="-35.2244164122" y2="24.4211442113" />
      <line x1="-34.9726830668" y1="25.68430195" x2="-35.160555231" y2="25.1011513783" />
      <line x1="-34.6717183672" y1="26.136705335" x2="-34.9726830668" y2="25.68430195" />
      <line x1="-34.3495476922" y1="26.3766593591" x2="-34.6717183672" y2="26.136705335" />
      <line x1="-31.8743133436" y1="20.6676161767" x2="-31.5297584012" y2="20.9242420939" />
      <line x1="-32.3073479581" y1="20.5557766942" x2="-31.8743133436" y2="20.6676161767" />
      <line x1="-32.7821896255" y1="20.6112412712" x2="-32.3073479581" y2="20.5557766942" />
      <line x1="-33.271242274" y1="20.8307865083" x2="-32.7821896255" y2="20.6112412712" />
      <line x1="-33.7460839414" y1="21.2016532342" x2="-33.271242274" y2="20.8307865083" />
      <line x1="-34.1791185558" y1="21.7022880229" x2="-33.7460839414" y2="21.2016532342" />
      <line x1="-34.5451797197" y1="22.3035958003" x2="-34.1791185558" y2="21.7022880229" />
      <line x1="-34.8229932886" y1="22.9706307438" x2="-34.5451797197" y2="22.3035958003" />
      <line x1="-34.9964137478" y1="23.6646272073" x2="-34.8229932886" y2="22.9706307438" />
      <line x1="-35.0553625305" y1="24.3452526388" x2="-34.9964137478" y2="23.6646272073" />
      <line x1="-34.9964137478" y1="24.9729515621" x2="-35.0553625305" y2="24.3452526388" />
      <line x1="-34.8229932886" y1="25.5112443976" x2="-34.9964137478" y2="24.9729515621" />
      <line x1="-34.5451797197" y1="25.9288475222" x2="-34.8229932886" y2="25.5112443976" />
      <line x1="-34.1791185558" y1="26.2014913602" x2="-34.5451797197" y2="25.9288475222" />
      <line x1="-33.7460839414" y1="26.3133308427" x2="-34.1791185558" y2="26.2014913602" />
      <line x1="-33.5077664491" y1="26.2854938187" x2="-33.7460839414" y2="26.3133308427" />
      <line x1="-31.3807158379" y1="22.3489517687" x2="-31.2117576131" y2="22.4747925391" />
      <line x1="-31.4295099541" y1="22.3280399912" x2="-31.3807158379" y2="22.3489517687" />
      <line x1="-31.6116676323" y1="22.2893040447" x2="-31.4295099541" y2="22.3280399912" />
      <line x1="-31.8649165215" y1="22.3188851525" x2="-31.6116676323" y2="22.2893040447" />
      <line x1="-32.1257446007" y1="22.4359759456" x2="-31.8649165215" y2="22.3188851525" />
      <line x1="-32.37899349" y1="22.6337715327" x2="-32.1257446007" y2="22.4359759456" />
      <line x1="-32.6099452844" y1="22.9007767534" x2="-32.37899349" y2="22.6337715327" />
      <line x1="-32.8051779051" y1="23.2214742346" x2="-32.6099452844" y2="22.9007767534" />
      <line x1="-32.9533451418" y1="23.5772262045" x2="-32.8051779051" y2="23.2214742346" />
      <line x1="-33.0458360534" y1="23.9473576517" x2="-32.9533451418" y2="23.5772262045" />
      <line x1="-33.0772754042" y1="24.3103578818" x2="-33.0458360534" y2="23.9473576517" />
      <line x1="-33.0458360534" y1="24.645130641" x2="-33.0772754042" y2="24.3103578818" />
      <line x1="-32.9533451418" y1="24.9322201532" x2="-33.0458360534" y2="24.645130641" />
      <line x1="-32.8051779051" y1="25.1549418196" x2="-32.9533451418" y2="24.9322201532" />
      <line x1="-32.6099452844" y1="25.3003518666" x2="-32.8051779051" y2="25.1549418196" />
      <line x1="-32.5611511682" y1="25.3212636441" x2="-32.6099452844" y2="25.3003518666" />
      <line x1="-32.37899349" y1="25.3599995906" x2="-32.5611511682" y2="25.3212636441" />
      <line x1="-32.3015472687" y1="25.3509533712" x2="-32.37899349" y2="25.3599995906" />
      <line x1="-6.8893183659" y1="28.6592628854" x2="-6.7141538722" y2="28.6965117267" />
      <line x1="-7.4037301722" y1="28.7193495105" x2="-6.8893183659" y2="28.6592628854" />
      <line x1="-7.9335372081" y1="28.957190184" x2="-7.4037301722" y2="28.7193495105" />
      <line x1="-8.4479490144" y1="29.3589624704" x2="-7.9335372081" y2="28.957190184" />
      <line x1="-8.9170698468" y1="29.9013168249" x2="-8.4479490144" y2="29.3589624704" />
      <line x1="-9.3136361076" y1="30.5527335836" x2="-8.9170698468" y2="29.9013168249" />
      <line x1="-9.6146008072" y1="31.2753547725" x2="-9.3136361076" y2="30.5527335836" />
      <line x1="-9.8024729714" y1="32.0271842746" x2="-9.6146008072" y2="31.2753547725" />
      <line x1="-9.8663341526" y1="32.764528492" x2="-9.8024729714" y2="32.0271842746" />
      <line x1="-9.8024729714" y1="33.444535659" x2="-9.8663341526" y2="32.764528492" />
      <line x1="-9.6146008072" y1="34.0276862308" x2="-9.8024729714" y2="33.444535659" />
      <line x1="-9.3136361076" y1="34.4800896157" x2="-9.6146008072" y2="34.0276862308" />
      <line x1="-8.9914654326" y1="34.7200436398" x2="-9.3136361076" y2="34.4800896157" />
      <line x1="-6.516231084" y1="29.0110004574" x2="-6.1716761416" y2="29.2676263746" />
      <line x1="-6.9492656985" y1="28.8991609749" x2="-6.516231084" y2="29.0110004574" />
      <line x1="-7.4241073659" y1="28.9546255519" x2="-6.9492656985" y2="28.8991609749" />
      <line x1="-7.9131600144" y1="29.174170789" x2="-7.4241073659" y2="28.9546255519" />
      <line x1="-8.3880016818" y1="29.5450375149" x2="-7.9131600144" y2="29.174170789" />
      <line x1="-8.8210362963" y1="30.0456723037" x2="-8.3880016818" y2="29.5450375149" />
      <line x1="-9.1870974601" y1="30.646980081" x2="-8.8210362963" y2="30.0456723037" />
      <line x1="-9.464911029" y1="31.3140150245" x2="-9.1870974601" y2="30.646980081" />
      <line x1="-9.6383314882" y1="32.008011488" x2="-9.464911029" y2="31.3140150245" />
      <line x1="-9.6972802709" y1="32.6886369195" x2="-9.6383314882" y2="32.008011488" />
      <line x1="-9.6383314882" y1="33.3163358429" x2="-9.6972802709" y2="32.6886369195" />
      <line x1="-9.464911029" y1="33.8546286783" x2="-9.6383314882" y2="33.3163358429" />
      <line x1="-9.1870974601" y1="34.2722318029" x2="-9.464911029" y2="33.8546286783" />
      <line x1="-8.8210362963" y1="34.5448756409" x2="-9.1870974601" y2="34.2722318029" />
      <line x1="-8.3880016818" y1="34.6567151234" x2="-8.8210362963" y2="34.5448756409" />
      <line x1="-8.1496841895" y1="34.6288780994" x2="-8.3880016818" y2="34.6567151234" />
      <line x1="-6.0226335783" y1="30.6923360495" x2="-5.8536753535" y2="30.8181768198" />
      <line x1="-6.0714276945" y1="30.6714242719" x2="-6.0226335783" y2="30.6923360495" />
      <line x1="-6.2535853727" y1="30.6326883254" x2="-6.0714276945" y2="30.6714242719" />
      <line x1="-6.5068342619" y1="30.6622694332" x2="-6.2535853727" y2="30.6326883254" />
      <line x1="-6.7676623411" y1="30.7793602263" x2="-6.5068342619" y2="30.6622694332" />
      <line x1="-7.0209112304" y1="30.9771558135" x2="-6.7676623411" y2="30.7793602263" />
      <line x1="-7.2518630248" y1="31.2441610341" x2="-7.0209112304" y2="30.9771558135" />
      <line x1="-7.4470956455" y1="31.5648585153" x2="-7.2518630248" y2="31.2441610341" />
      <line x1="-7.5952628823" y1="31.9206104852" x2="-7.4470956455" y2="31.5648585153" />
      <line x1="-7.6877537938" y1="32.2907419324" x2="-7.5952628823" y2="31.9206104852" />
      <line x1="-7.7191931446" y1="32.6537421625" x2="-7.6877537938" y2="32.2907419324" />
      <line x1="-7.6877537938" y1="32.9885149217" x2="-7.7191931446" y2="32.6537421625" />
      <line x1="-7.5952628823" y1="33.2756044339" x2="-7.6877537938" y2="32.9885149217" />
      <line x1="-7.4470956455" y1="33.4983261004" x2="-7.5952628823" y2="33.2756044339" />
      <line x1="-7.2518630248" y1="33.6437361473" x2="-7.4470956455" y2="33.4983261004" />
      <line x1="-7.2030689086" y1="33.6646479248" x2="-7.2518630248" y2="33.6437361473" />
      <line x1="-7.0209112304" y1="33.7033838713" x2="-7.2030689086" y2="33.6646479248" />
      <line x1="-6.9434650091" y1="33.6943376519" x2="-7.0209112304" y2="33.7033838713" />
      <line x1="-40.700094712" y1="43.8375773904" x2="-40.5249302183" y2="43.8748262317" />
      <line x1="-41.2145065183" y1="43.8976640155" x2="-40.700094712" y2="43.8375773904" />
      <line x1="-41.7443135542" y1="44.135504689" x2="-41.2145065183" y2="43.8976640155" />
      <line x1="-42.2587253605" y1="44.5372769754" x2="-41.7443135542" y2="44.135504689" />
      <line x1="-42.7278461929" y1="45.0796313299" x2="-42.2587253605" y2="44.5372769754" />
      <line x1="-43.1244124537" y1="45.7310480886" x2="-42.7278461929" y2="45.0796313299" />
      <line x1="-43.4253771534" y1="46.4536692775" x2="-43.1244124537" y2="45.7310480886" />
      <line x1="-43.6132493175" y1="47.2054987796" x2="-43.4253771534" y2="46.4536692775" />
      <line x1="-43.6771104988" y1="47.942842997" x2="-43.6132493175" y2="47.2054987796" />
      <line x1="-43.6132493175" y1="48.622850164" x2="-43.6771104988" y2="47.942842997" />
      <line x1="-43.4253771534" y1="49.2060007358" x2="-43.6132493175" y2="48.622850164" />
      <line x1="-43.1244124537" y1="49.6584041207" x2="-43.4253771534" y2="49.2060007358" />
      <line x1="-42.8022417787" y1="49.8983581448" x2="-43.1244124537" y2="49.6584041207" />
      <line x1="-40.3270074302" y1="44.1893149625" x2="-39.9824524877" y2="44.4459408796" />
      <line x1="-40.7600420446" y1="44.0774754799" x2="-40.3270074302" y2="44.1893149625" />
      <line x1="-41.234883712" y1="44.132940057" x2="-40.7600420446" y2="44.0774754799" />
      <line x1="-41.7239363605" y1="44.352485294" x2="-41.234883712" y2="44.132940057" />
      <line x1="-42.1987780279" y1="44.72335202" x2="-41.7239363605" y2="44.352485294" />
      <line x1="-42.6318126424" y1="45.2239868087" x2="-42.1987780279" y2="44.72335202" />
      <line x1="-42.9978738062" y1="45.825294586" x2="-42.6318126424" y2="45.2239868087" />
      <line x1="-43.2756873751" y1="46.4923295295" x2="-42.9978738062" y2="45.825294586" />
      <line x1="-43.4491078343" y1="47.186325993" x2="-43.2756873751" y2="46.4923295295" />
      <line x1="-43.508056617" y1="47.8669514245" x2="-43.4491078343" y2="47.186325993" />
      <line x1="-43.4491078343" y1="48.4946503479" x2="-43.508056617" y2="47.8669514245" />
      <line x1="-43.2756873751" y1="49.0329431833" x2="-43.4491078343" y2="48.4946503479" />
      <line x1="-42.9978738062" y1="49.4505463079" x2="-43.2756873751" y2="49.0329431833" />
      <line x1="-42.6318126424" y1="49.7231901459" x2="-42.9978738062" y2="49.4505463079" />
      <line x1="-42.1987780279" y1="49.8350296285" x2="-42.6318126424" y2="49.7231901459" />
      <line x1="-41.9604605356" y1="49.8071926044" x2="-42.1987780279" y2="49.8350296285" />
      <line x1="-39.8334099244" y1="45.8706505545" x2="-39.6644516997" y2="45.9964913248" />
      <line x1="-39.8822040406" y1="45.8497387769" x2="-39.8334099244" y2="45.8706505545" />
      <line x1="-40.0643617188" y1="45.8110028304" x2="-39.8822040406" y2="45.8497387769" />
      <line x1="-40.317610608" y1="45.8405839382" x2="-40.0643617188" y2="45.8110028304" />
      <line x1="-40.5784386873" y1="45.9576747313" x2="-40.317610608" y2="45.8405839382" />
      <line x1="-40.8316875765" y1="46.1554703185" x2="-40.5784386873" y2="45.9576747313" />
      <line x1="-41.0626393709" y1="46.4224755391" x2="-40.8316875765" y2="46.1554703185" />
      <line x1="-41.2578719916" y1="46.7431730204" x2="-41.0626393709" y2="46.4224755391" />
      <line x1="-41.4060392284" y1="47.0989249902" x2="-41.2578719916" y2="46.7431730204" />
      <line x1="-41.4985301399" y1="47.4690564374" x2="-41.4060392284" y2="47.0989249902" />
      <line x1="-41.5299694907" y1="47.8320566675" x2="-41.4985301399" y2="47.4690564374" />
      <line x1="-41.4985301399" y1="48.1668294267" x2="-41.5299694907" y2="47.8320566675" />
      <line x1="-41.4060392284" y1="48.4539189389" x2="-41.4985301399" y2="48.1668294267" />
      <line x1="-41.2578719916" y1="48.6766406054" x2="-41.4060392284" y2="48.4539189389" />
      <line x1="-41.0626393709" y1="48.8220506523" x2="-41.2578719916" y2="48.6766406054" />
      <line x1="-41.0138452547" y1="48.8429624299" x2="-41.0626393709" y2="48.8220506523" />
      <line x1="-40.8316875765" y1="48.8816983763" x2="-41.0138452547" y2="48.8429624299" />
      <line x1="-40.7542413552" y1="48.8726521569" x2="-40.8316875765" y2="48.8816983763" />
      <line x1="10.1532120596" y1="-10.4679011269" x2="14.4997647687" y2="-8.823916491" />
      <line x1="14.4997647687" y1="-8.7745264963" x2="14.4997647687" y2="-8.823916491" />
      <line x1="3.5262998957" y1="60.3882189971" x2="7.8728526049" y2="62.0322036331" />
      <line x1="7.8728526049" y1="62.0322036331" x2="14.4997647687" y2="59.0572539901" />
      <line x1="10.1532120596" y1="57.4132693541" x2="14.4997647687" y2="59.0572539901" />
      <line x1="14.4997647687" y1="59.0572539901" x2="14.4997647687" y2="55.4126273871" />
      <line x1="20.4850431603" y1="-10.2427099968" x2="20.4850431603" y2="50.3492072783" />
      <line x1="-0.2917889351" y1="60.0062107119" x2="-0.2421462826" y2="59.9290957057" />
      <line x1="-0.3042304717" y1="60.0800994366" x2="-0.2917889351" y2="60.0062107119" />
      <line x1="-0.2973139624" y1="60.1353283813" x2="-0.3042304717" y2="60.0800994366" />
      <line x1="-0.2276896776" y1="60.2612389622" x2="-0.2973139624" y2="60.1353283813" />
      <line x1="-0.0869623911" y1="60.3766249896" x2="-0.2276896776" y2="60.2612389622" />
      <line x1="0.1166893387" y1="60.4747806467" x2="-0.0869623911" y2="60.3766249896" />
      <line x1="0.3714300135" y1="60.5500014837" x2="0.1166893387" y2="60.4747806467" />
      <line x1="0.6624550313" y1="60.5979159389" x2="0.3714300135" y2="60.5500014837" />
      <line x1="0.9728510758" y1="60.6157393984" x2="0.6624550313" y2="60.5979159389" />
      <line x1="1.2845790572" y1="60.6024360273" x2="0.9728510758" y2="60.6157393984" />
      <line x1="1.5795224783" y1="60.5587789694" x2="1.2845790572" y2="60.6024360273" />
      <line x1="1.8405402996" y1="60.4873054142" x2="1.5795224783" y2="60.5587789694" />
      <line x1="2.0524631139" y1="60.3921691448" x2="1.8405402996" y2="60.4873054142" />
      <line x1="2.2029747377" y1="60.2788991354" x2="2.0524631139" y2="60.3921691448" />
      <line x1="2.2833279825" y1="60.1540782273" x2="2.2029747377" y2="60.2788991354" />
      <line x1="2.2957695191" y1="60.0801895026" x2="2.2833279825" y2="60.1540782273" />
      <line x1="2.2888530098" y1="60.024960558" x2="2.2957695191" y2="60.0801895026" />
      <line x1="2.2385852326" y1="59.9340548482" x2="2.2888530098" y2="60.024960558" />
      <line x1="17.2898147649" y1="52.1134871693" x2="17.3394574174" y2="52.0363721631" />
      <line x1="17.2773732283" y1="52.187375894" x2="17.2898147649" y2="52.1134871693" />
      <line x1="17.2842897376" y1="52.2426048386" x2="17.2773732283" y2="52.187375894" />
      <line x1="17.3539140224" y1="52.3685154196" x2="17.2842897376" y2="52.2426048386" />
      <line x1="17.4946413089" y1="52.483901447" x2="17.3539140224" y2="52.3685154196" />
      <line x1="17.6982930387" y1="52.5820571041" x2="17.4946413089" y2="52.483901447" />
      <line x1="17.9530337135" y1="52.6572779411" x2="17.6982930387" y2="52.5820571041" />
      <line x1="18.2440587313" y1="52.7051923963" x2="17.9530337135" y2="52.6572779411" />
      <line x1="18.5544547758" y1="52.7230158558" x2="18.2440587313" y2="52.7051923963" />
      <line x1="18.8661827572" y1="52.7097124847" x2="18.5544547758" y2="52.7230158558" />
      <line x1="19.1611261783" y1="52.6660554268" x2="18.8661827572" y2="52.7097124847" />
      <line x1="19.4221439996" y1="52.5945818715" x2="19.1611261783" y2="52.6660554268" />
      <line x1="19.6340668139" y1="52.4994456021" x2="19.4221439996" y2="52.5945818715" />
      <line x1="19.7845784377" y1="52.3861755928" x2="19.6340668139" y2="52.4994456021" />
      <line x1="19.8649316825" y1="52.2613546847" x2="19.7845784377" y2="52.3861755928" />
      <line x1="19.8773732191" y1="52.18746596" x2="19.8649316825" y2="52.2613546847" />
      <line x1="19.8704567098" y1="52.1322370154" x2="19.8773732191" y2="52.18746596" />
      <line x1="19.8201889326" y1="52.0413313056" x2="19.8704567098" y2="52.1322370154" />
      <line x1="19.3265806359" y1="51.8604932392" x2="19.6322694457" y2="51.9507582436" />
      <line x1="18.9773506146" y1="51.802995893" x2="19.3265806359" y2="51.8604932392" />
      <line x1="18.6048753611" y1="51.7816077417" x2="18.9773506146" y2="51.802995893" />
      <line x1="18.2308017834" y1="51.7975717869" x2="18.6048753611" y2="51.7816077417" />
      <line x1="17.8768696781" y1="51.8499602564" x2="18.2308017834" y2="51.7975717869" />
      <line x1="17.5636482926" y1="51.9357285227" x2="17.8768696781" y2="51.8499602564" />
      <line x1="17.3093409154" y1="52.049892046" x2="17.5636482926" y2="51.9357285227" />
      <line x1="17.1886014427" y1="52.1315231512" x2="17.3093409154" y2="52.049892046" />
      <line x1="17.1287269668" y1="52.1858160573" x2="17.1886014427" y2="52.1315231512" />
      <line x1="17.0323030731" y1="52.335601147" x2="17.1287269668" y2="52.1858160573" />
      <line x1="17.0256730404" y1="52.4905423502" x2="17.0323030731" y2="52.335601147" />
      <line x1="17.1092221822" y1="52.6416350474" x2="17.0256730404" y2="52.4905423502" />
      <line x1="17.2780949259" y1="52.7800982802" x2="17.1092221822" y2="52.6416350474" />
      <line x1="17.5224770017" y1="52.8978850688" x2="17.2780949259" y2="52.7800982802" />
      <line x1="17.8281658115" y1="52.9881500732" x2="17.5224770017" y2="52.8978850688" />
      <line x1="18.1773958328" y1="53.0456474194" x2="17.8281658115" y2="52.9881500732" />
      <line x1="18.5498710862" y1="53.0670355707" x2="18.1773958328" y2="53.0456474194" />
      <line x1="18.9239446639" y1="53.0510715255" x2="18.5498710862" y2="53.0670355707" />
      <line x1="19.2778767692" y1="52.998683056" x2="18.9239446639" y2="53.0510715255" />
      <line x1="19.5910981547" y1="52.9129147896" x2="19.2778767692" y2="52.998683056" />
      <line x1="19.845405532" y1="52.7987512664" x2="19.5910981547" y2="52.9129147896" />
      <line x1="20.0260194805" y1="52.6628272551" x2="19.845405532" y2="52.7987512664" />
      <line x1="20.1224433743" y1="52.5130421654" x2="20.0260194805" y2="52.6628272551" />
      <line x1="20.129073407" y1="52.3581009622" x2="20.1224433743" y2="52.5130421654" />
      <line x1="20.0455242652" y1="52.207008265" x2="20.129073407" y2="52.3581009622" />
      <line x1="19.9661279409" y1="52.1315094094" x2="20.0455242652" y2="52.207008265" />
      <line x1="19.8766515214" y1="52.0685450322" x2="19.9661279409" y2="52.1315094094" />
      <line x1="19.6322694457" y1="51.9507582436" x2="19.8766515214" y2="52.0685450322" />
      <line x1="1.7449769359" y1="59.7532167819" x2="2.0506657457" y2="59.8434817863" />
      <line x1="1.3957469146" y1="59.6957194356" x2="1.7449769359" y2="59.7532167819" />
      <line x1="1.0232716612" y1="59.6743312843" x2="1.3957469146" y2="59.6957194356" />
      <line x1="0.6491980835" y1="59.6902953295" x2="1.0232716612" y2="59.6743312843" />
      <line x1="0.2952659781" y1="59.742683799" x2="0.6491980835" y2="59.6902953295" />
      <line x1="-0.0179554073" y1="59.8284520654" x2="0.2952659781" y2="59.742683799" />
      <line x1="-0.2722627846" y1="59.9426155886" x2="-0.0179554073" y2="59.8284520654" />
      <line x1="-0.3930022573" y1="60.0242466939" x2="-0.2722627846" y2="59.9426155886" />
      <line x1="-0.4528767331" y1="60.0785395999" x2="-0.3930022573" y2="60.0242466939" />
      <line x1="-0.5493006269" y1="60.2283246896" x2="-0.4528767331" y2="60.0785395999" />
      <line x1="-0.5559306596" y1="60.3832658928" x2="-0.5493006269" y2="60.2283246896" />
      <line x1="-0.4723815178" y1="60.53435859" x2="-0.5559306596" y2="60.3832658928" />
      <line x1="-0.3035087741" y1="60.6728218228" x2="-0.4723815178" y2="60.53435859" />
      <line x1="-0.0591266983" y1="60.7906086114" x2="-0.3035087741" y2="60.6728218228" />
      <line x1="0.2465621115" y1="60.8808736158" x2="-0.0591266983" y2="60.7906086114" />
      <line x1="0.5957921328" y1="60.938370962" x2="0.2465621115" y2="60.8808736158" />
      <line x1="0.9682673863" y1="60.9597591133" x2="0.5957921328" y2="60.938370962" />
      <line x1="1.3423409639" y1="60.9437950681" x2="0.9682673863" y2="60.9597591133" />
      <line x1="1.6962730693" y1="60.8914065986" x2="1.3423409639" y2="60.9437950681" />
      <line x1="2.0094944547" y1="60.8056383323" x2="1.6962730693" y2="60.8914065986" />
      <line x1="2.263801832" y1="60.691474809" x2="2.0094944547" y2="60.8056383323" />
      <line x1="2.4444157806" y1="60.5555507978" x2="2.263801832" y2="60.691474809" />
      <line x1="2.5408396743" y1="60.405765708" x2="2.4444157806" y2="60.5555507978" />
      <line x1="2.547469707" y1="60.2508245048" x2="2.5408396743" y2="60.405765708" />
      <line x1="2.4639205652" y1="60.0997318076" x2="2.547469707" y2="60.2508245048" />
      <line x1="2.3845242409" y1="60.024232952" x2="2.4639205652" y2="60.0997318076" />
      <line x1="2.2950478215" y1="59.9612685749" x2="2.3845242409" y2="60.024232952" />
      <line x1="2.0506657457" y1="59.8434817863" x2="2.2950478215" y2="59.9612685749" />
      <line x1="20.4850431603" y1="50.3492072783" x2="23.4318585563" y2="51.4637731331" />
      <line x1="17.6592044084" y1="50.399056931" x2="20.4850431603" y2="50.3492072783" />
      <line x1="10.1532120596" y1="53.7686427511" x2="14.4997647687" y2="55.4126273871" />
      <line x1="20.4850431603" y1="-10.2427099968" x2="17.6592044084" y2="-10.192860344" />
      <line x1="20.4850431603" y1="-10.2427099968" x2="23.4318585563" y2="-9.1281441419" />
      <line x1="23.4318585563" y1="51.4637731331" x2="23.4318585563" y2="-9.1281441419" />
      <line x1="23.4318585563" y1="51.4637731331" x2="23.5528352005" y2="52.6281886408" />
      <line x1="23.5528352005" y1="-7.9637286343" x2="23.4318585563" y2="-9.1281441419" />
      <line x1="4.0494477121" y1="9.2863245009" x2="4.9320860961" y2="8.8121402745" />
      <line x1="3.1819115153" y1="9.9082967357" x2="4.0494477121" y2="9.2863245009" />
      <line x1="2.3443212902" y1="10.6674148605" x2="3.1819115153" y2="9.9082967357" />
      <line x1="1.5510084379" y1="11.5506901536" x2="2.3443212902" y2="10.6674148605" />
      <line x1="0.8155467614" y1="12.5430095297" x2="1.5510084379" y2="11.5506901536" />
      <line x1="0.150520214" y1="13.6273941289" x2="0.8155467614" y2="12.5430095297" />
      <line x1="-0.4326924155" y1="14.7852898299" x2="0.150520214" y2="13.6273941289" />
      <line x1="-0.9241121973" y1="15.9968847161" x2="-0.4326924155" y2="14.7852898299" />
      <line x1="-1.3153308026" y1="17.2414480627" x2="-0.9241121973" y2="15.9968847161" />
      <line x1="-1.5996543725" y1="18.4976850457" x2="-1.3153308026" y2="17.2414480627" />
      <line x1="-1.7722180518" y1="19.7441011018" x2="-1.5996543725" y2="18.4976850457" />
      <line x1="-1.830069227" y1="20.9593697804" x2="-1.7722180518" y2="19.7441011018" />
      <line x1="-1.8300692271" y1="39.1825026481" x2="-1.830069227" y2="20.9593697804" />
      <line x1="-1.7722180589" y1="40.3458302222" x2="-1.8300692271" y2="39.1825026481" />
      <line x1="-1.5996543866" y1="41.4373119056" x2="-1.7722180589" y2="40.3458302222" />
      <line x1="-1.3153308235" y1="42.4382721439" x2="-1.5996543866" y2="41.4373119056" />
      <line x1="-0.9241122246" y1="43.3315842297" x2="-1.3153308235" y2="42.4382721439" />
      <line x1="-0.4326924487" y1="44.1019633454" x2="-0.9241122246" y2="43.3315842297" />
      <line x1="0.1505201755" y1="44.7362280907" x2="-0.4326924487" y2="44.1019633454" />
      <line x1="0.8155467182" y1="45.2235260197" x2="0.1505201755" y2="44.7362280907" />
      <line x1="1.3941943288" y1="45.5000917766" x2="0.8155467182" y2="45.2235260197" />
      <line x1="1.5510083907" y1="45.5555193297" x2="1.3941943288" y2="45.5000917766" />
      <line x1="2.3443212399" y1="45.7265275231" x2="1.5510083907" y2="45.5555193297" />
      <line x1="3.1819114627" y1="45.7336246022" x2="2.3443212399" y2="45.7265275231" />
      <line x1="4.0494476581" y1="45.5766891341" x2="3.1819114627" y2="45.7336246022" />
      <line x1="4.9320860965" y1="45.258406303" x2="4.0494476581" y2="45.5766891341" />
      <line x1="8.3131636217" y1="43.7405749015" x2="4.9320860965" y2="45.258406303" />
      <line x1="9.1958020046" y1="43.2663906747" x2="8.3131636217" y2="43.7405749015" />
      <line x1="10.0445485432" y1="42.6578895155" x2="9.1958020046" y2="43.2663906747" />
      <line x1="14.8449041034" y1="11.1154032704" x2="14.9296179215" y2="11.6661418783" />
      <line x1="14.5605805403" y1="10.114443032" x2="14.8449041034" y2="11.1154032704" />
      <line x1="14.1693619415" y1="9.2211309462" x2="14.5605805403" y2="10.114443032" />
      <line x1="13.6779421656" y1="8.4507518304" x2="14.1693619415" y2="9.2211309462" />
      <line x1="13.0947295414" y1="7.8164870851" x2="13.6779421656" y2="8.4507518304" />
      <line x1="12.4297029987" y1="7.329189156" x2="13.0947295414" y2="7.8164870851" />
      <line x1="11.8510553879" y1="7.052623399" x2="12.4297029987" y2="7.329189156" />
      <line x1="11.6942413261" y1="6.9971958459" x2="11.8510553879" y2="7.052623399" />
      <line x1="10.900928477" y1="6.8261876525" x2="11.6942413261" y2="6.9971958459" />
      <line x1="10.0633382541" y1="6.8190905734" x2="10.900928477" y2="6.8261876525" />
      <line x1="9.1958020587" y1="6.9760260415" x2="10.0633382541" y2="6.8190905734" />
      <line x1="8.3131636214" y1="7.294308873" x2="9.1958020587" y2="6.9760260415" />
      <line x1="4.9320860961" y1="8.8121402745" x2="8.3131636214" y2="7.294308873" />
      <line x1="7.8789014932" y1="9.926706128" x2="11.2599790196" y2="8.4088747263" />
      <line x1="6.99626311" y1="10.4008903546" x2="7.8789014932" y2="9.926706128" />
      <line x1="6.128726913" y1="11.0228625892" x2="6.99626311" y2="10.4008903546" />
      <line x1="5.5597064329" y1="11.5204770327" x2="6.128726913" y2="11.0228625892" />
      <line x1="5.2911366877" y1="11.781980714" x2="5.5597064329" y2="11.5204770327" />
      <line x1="4.4978238351" y1="12.665256007" x2="5.2911366877" y2="11.781980714" />
      <line x1="3.7623621584" y1="13.6575753831" x2="4.4978238351" y2="12.665256007" />
      <line x1="3.0973356108" y1="14.7419599825" x2="3.7623621584" y2="13.6575753831" />
      <line x1="2.514122981" y1="15.8998556836" x2="3.0973356108" y2="14.7419599825" />
      <line x1="2.022703199" y1="17.11145057" x2="2.514122981" y2="15.8998556836" />
      <line x1="1.6314845936" y1="18.3560139169" x2="2.022703199" y2="17.11145057" />
      <line x1="1.3471610236" y1="19.6122509001" x2="1.6314845936" y2="18.3560139169" />
      <line x1="1.1745973442" y1="20.8586669565" x2="1.3471610236" y2="19.6122509001" />
      <line x1="1.1167461678" y1="22.0739356309" x2="1.1745973442" y2="20.8586669565" />
      <line x1="1.1167461679" y1="40.2970684998" x2="1.1167461678" y2="22.0739356309" />
      <line x1="1.1663479818" y1="41.3763822233" x2="1.1167461679" y2="40.2970684998" />
      <line x1="1.347161009" y1="42.5518777584" x2="1.1663479818" y2="41.3763822233" />
      <line x1="1.631484572" y1="43.5528379971" x2="1.347161009" y2="42.5518777584" />
      <line x1="2.0227031708" y1="44.4461500833" x2="1.631484572" y2="43.5528379971" />
      <line x1="2.5141229466" y1="45.2165291993" x2="2.0227031708" y2="44.4461500833" />
      <line x1="2.988087092" y1="45.7319822873" x2="2.5141229466" y2="45.2165291993" />
      <line x1="13.0101536504" y1="7.9336564282" x2="13.2039780207" y2="7.9352987431" />
      <line x1="12.1426174549" y1="8.0905918963" x2="13.0101536504" y2="7.9336564282" />
      <line x1="11.2599790196" y1="8.4088747263" x2="12.1426174549" y2="8.0905918963" />
      <line x1="5.5812728718" y1="11.6069772607" x2="6.1475165703" y2="11.0093915143" />
      <line x1="4.7426987299" y1="12.6664925793" x2="5.5812728718" y2="11.6069772607" />
      <line x1="3.9713430895" y1="13.8270492422" x2="4.7426987299" y2="12.6664925793" />
      <line x1="3.2784540531" y1="15.0717237194" x2="3.9713430895" y2="13.8270492422" />
      <line x1="2.6741355034" y1="16.3823658539" x2="3.2784540531" y2="15.0717237194" />
      <line x1="2.1671997657" y1="17.7398635314" x2="2.6741355034" y2="16.3823658539" />
      <line x1="1.765039105" y1="19.1244213785" x2="2.1671997657" y2="17.7398635314" />
      <line x1="1.4735179294" y1="20.5158494235" x2="1.765039105" y2="19.1244213785" />
      <line x1="1.2968872741" y1="21.8938575116" x2="1.4735179294" y2="20.5158494235" />
      <line x1="1.2377228119" y1="23.2383511804" x2="1.2968872741" y2="21.8938575116" />
      <line x1="1.237722812" y1="41.461483962" x2="1.2377228119" y2="23.2383511804" />
      <line x1="1.2624471913" y1="42.0011391529" x2="1.237722812" y2="41.461483962" />
      <line x1="-19.0487429956" y1="71.7528649171" x2="5.0136666888" y2="60.9507816346" />
      <line x1="14.4997647687" y1="56.6922878748" x2="23.5528352005" y2="52.6281886408" />
      <line x1="-20.7698891242" y1="72.4366264932" x2="-19.0487429956" y2="71.7528649171" />
      <line x1="-22.480934883" y1="72.9385867525" x2="-20.7698891242" y2="72.4366264932" />
      <line x1="-24.171839175" y1="73.2557999927" x2="-22.480934883" y2="72.9385867525" />
      <line x1="-25.8326791016" y1="73.3864046803" x2="-24.171839175" y2="73.2557999927" />
      <line x1="-27.4537081935" y1="73.3296343751" x2="-25.8326791016" y2="73.3864046803" />
      <line x1="-29.0254136076" y1="73.0858222277" x2="-27.4537081935" y2="73.3296343751" />
      <line x1="-30.5385719515" y1="72.6563990249" x2="-29.0254136076" y2="73.0858222277" />
      <line x1="-30.8116799717" y1="72.5566782026" x2="-30.5385719515" y2="72.6563990249" />
      <line x1="23.5528352005" y1="52.6281886408" x2="23.5528352005" y2="-7.9637286343" />
      <line x1="-31.3153703668" y1="62.1967218746" x2="-31.2316884674" y2="62.1591554439" />
      <line x1="-31.5686192561" y1="62.3945174618" x2="-31.3153703668" y2="62.1967218746" />
      <line x1="-31.7995710505" y1="62.6615226824" x2="-31.5686192561" y2="62.3945174618" />
      <line x1="-31.9948036712" y1="62.9822201637" x2="-31.7995710505" y2="62.6615226824" />
      <line x1="-32.1429709079" y1="63.3379721336" x2="-31.9948036712" y2="62.9822201637" />
      <line x1="-32.2354618195" y1="63.7081035807" x2="-32.1429709079" y2="63.3379721336" />
      <line x1="-32.2669011703" y1="64.0711038109" x2="-32.2354618195" y2="63.7081035807" />
      <line x1="-32.2354618195" y1="64.40587657" x2="-32.2669011703" y2="64.0711038109" />
      <line x1="-32.1596616126" y1="64.6411585459" x2="-32.2354618195" y2="64.40587657" />
      <line x1="-14.4099821937" y1="54.6075646221" x2="-14.3263002944" y2="54.5699981914" />
      <line x1="-14.663231083" y1="54.8053602093" x2="-14.4099821937" y2="54.6075646221" />
      <line x1="-14.8941828774" y1="55.0723654299" x2="-14.663231083" y2="54.8053602093" />
      <line x1="-15.0894154981" y1="55.3930629112" x2="-14.8941828774" y2="55.0723654299" />
      <line x1="-15.2375827349" y1="55.7488148811" x2="-15.0894154981" y2="55.3930629112" />
      <line x1="-15.3300736464" y1="56.1189463282" x2="-15.2375827349" y2="55.7488148811" />
      <line x1="-15.3615129972" y1="56.4819465584" x2="-15.3300736464" y2="56.1189463282" />
      <line x1="-15.3300736464" y1="56.8167193175" x2="-15.3615129972" y2="56.4819465584" />
      <line x1="-15.2542734395" y1="57.0520012934" x2="-15.3300736464" y2="56.8167193175" />
      <line x1="-14.4099821937" y1="15.1533243032" x2="-14.3263002944" y2="15.1157578724" />
      <line x1="-14.663231083" y1="15.3511198903" x2="-14.4099821937" y2="15.1533243032" />
      <line x1="-14.8941828774" y1="15.618125111" x2="-14.663231083" y2="15.3511198903" />
      <line x1="-15.0894154981" y1="15.9388225922" x2="-14.8941828774" y2="15.618125111" />
      <line x1="-15.2375827349" y1="16.2945745621" x2="-15.0894154981" y2="15.9388225922" />
      <line x1="-15.3300736464" y1="16.6647060093" x2="-15.2375827349" y2="16.2945745621" />
      <line x1="-15.3615129972" y1="17.0277062394" x2="-15.3300736464" y2="16.6647060093" />
      <line x1="-15.3300736464" y1="17.3624789985" x2="-15.3615129972" y2="17.0277062394" />
      <line x1="-15.2542734395" y1="17.5977609744" x2="-15.3300736464" y2="17.3624789985" />
      <line x1="-31.3153703668" y1="22.7424815557" x2="-31.2316884674" y2="22.704915125" />
      <line x1="-31.5686192561" y1="22.9402771428" x2="-31.3153703668" y2="22.7424815557" />
      <line x1="-31.7995710505" y1="23.2072823635" x2="-31.5686192561" y2="22.9402771428" />
      <line x1="-31.9948036712" y1="23.5279798447" x2="-31.7995710505" y2="23.2072823635" />
      <line x1="-32.1429709079" y1="23.8837318146" x2="-31.9948036712" y2="23.5279798447" />
      <line x1="-32.2354618195" y1="24.2538632618" x2="-32.1429709079" y2="23.8837318146" />
      <line x1="-32.2669011703" y1="24.6168634919" x2="-32.2354618195" y2="24.2538632618" />
      <line x1="-32.2354618195" y1="24.9516362511" x2="-32.2669011703" y2="24.6168634919" />
      <line x1="-32.1596616126" y1="25.1869182269" x2="-32.2354618195" y2="24.9516362511" />
      <line x1="-5.9572881072" y1="31.0858658364" x2="-5.8736062078" y2="31.0482994057" />
      <line x1="-6.2105369965" y1="31.2836614235" x2="-5.9572881072" y2="31.0858658364" />
      <line x1="-6.4414887909" y1="31.5506666442" x2="-6.2105369965" y2="31.2836614235" />
      <line x1="-6.6367214116" y1="31.8713641254" x2="-6.4414887909" y2="31.5506666442" />
      <line x1="-6.7848886483" y1="32.2271160953" x2="-6.6367214116" y2="31.8713641254" />
      <line x1="-6.8773795599" y1="32.5972475425" x2="-6.7848886483" y2="32.2271160953" />
      <line x1="-6.9088189107" y1="32.9602477726" x2="-6.8773795599" y2="32.5972475425" />
      <line x1="-6.8773795599" y1="33.2950205318" x2="-6.9088189107" y2="32.9602477726" />
      <line x1="-6.801579353" y1="33.5303025076" x2="-6.8773795599" y2="33.2950205318" />
      <line x1="-39.7680644533" y1="46.2641803414" x2="-39.684382554" y2="46.2266139107" />
      <line x1="-40.0213133426" y1="46.4619759286" x2="-39.7680644533" y2="46.2641803414" />
      <line x1="-40.252265137" y1="46.7289811492" x2="-40.0213133426" y2="46.4619759286" />
      <line x1="-40.4474977577" y1="47.0496786304" x2="-40.252265137" y2="46.7289811492" />
      <line x1="-40.5956649945" y1="47.4054306003" x2="-40.4474977577" y2="47.0496786304" />
      <line x1="-40.688155906" y1="47.7755620475" x2="-40.5956649945" y2="47.4054306003" />
      <line x1="-40.7195952568" y1="48.1385622776" x2="-40.688155906" y2="47.7755620475" />
      <line x1="-40.688155906" y1="48.4733350368" x2="-40.7195952568" y2="48.1385622776" />
      <line x1="-40.6123556991" y1="48.7086170127" x2="-40.688155906" y2="48.4733350368" />
      <line x1="-35.1759450003" y1="43.9167183" x2="-35.2422494887" y2="45.6796753278" />
      <line x1="-34.9777343789" y1="42.1129183087" x2="-35.1759450003" y2="43.9167183" />
      <line x1="-34.6497187066" y1="40.2873960825" x2="-34.9777343789" y2="42.1129183087" />
      <line x1="-34.195375031" y1="38.4595026112" x2="-34.6497187066" y2="40.2873960825" />
      <line x1="-33.6195195081" y1="36.6486140203" x2="-34.195375031" y2="38.4595026112" />
      <line x1="-32.9282563498" y1="34.8739261793" x2="-33.6195195081" y2="36.6486140203" />
      <line x1="-32.1289131175" y1="33.1542512209" x2="-32.9282563498" y2="34.8739261793" />
      <line x1="-31.2299630482" y1="31.5078181273" x2="-32.1289131175" y2="33.1542512209" />
      <line x1="-30.2409352364" y1="29.9520794991" x2="-31.2299630482" y2="31.5078181273" />
      <line x1="-29.172313623" y1="28.5035265526" x2="-30.2409352364" y2="29.9520794991" />
      <line x1="-28.0354258627" y1="27.1775143095" x2="-29.172313623" y2="28.5035265526" />
      <line x1="-26.8423232488" y1="25.9880988294" x2="-28.0354258627" y2="27.1775143095" />
      <line x1="-25.6056529658" y1="24.9478882123" x2="-26.8423232488" y2="25.9880988294" />
      <line x1="-24.3385240262" y1="24.0679089495" x2="-25.6056529658" y2="24.9478882123" />
      <line x1="-23.0543683122" y1="23.3574890402" x2="-24.3385240262" y2="24.0679089495" />
      <line x1="-21.7667981936" y1="22.824159112" x2="-23.0543683122" y2="23.3574890402" />
      <line x1="-20.4894622341" y1="22.4735725949" x2="-21.7667981936" y2="22.824159112" />
      <line x1="-19.2359005127" y1="22.3094457931" x2="-20.4894622341" y2="22.4735725949" />
      <line x1="-18.0194010953" y1="22.3335184917" x2="-19.2359005127" y2="22.3094457931" />
      <line x1="-17.3352741705" y1="22.4578574044" x2="-18.0194010953" y2="22.3335184917" />
      <line x1="-31.2299630482" y1="56.2491458304" x2="-30.3420945224" y2="56.8485982504" />
      <line x1="-32.1289131175" y1="55.4098250454" x2="-31.2299630482" y2="56.2491458304" />
      <line x1="-32.9282563498" y1="54.4078315063" x2="-32.1289131175" y2="55.4098250454" />
      <line x1="-33.6195195081" y1="53.2537865938" x2="-32.9282563498" y2="54.4078315063" />
      <line x1="-34.195375031" y1="51.959923471" x2="-33.6195195081" y2="53.2537865938" />
      <line x1="-34.6497187066" y1="50.539957409" x2="-34.195375031" y2="51.959923471" />
      <line x1="-34.9777343789" y1="49.0089404013" x2="-34.6497187066" y2="50.539957409" />
      <line x1="-35.1759450003" y1="47.383101609" x2="-34.9777343789" y2="49.0089404013" />
      <line x1="-35.2422494887" y1="45.6796753278" x2="-35.1759450003" y2="47.383101609" />
      <line x1="-37.3860565473" y1="46.5471772179" x2="-37.4523610358" y2="44.8437509367" />
      <line x1="-37.187845926" y1="48.1730160102" x2="-37.3860565473" y2="46.5471772179" />
      <line x1="-36.8598302536" y1="49.7040330179" x2="-37.187845926" y2="48.1730160102" />
      <line x1="-36.405486578" y1="51.1239990799" x2="-36.8598302536" y2="49.7040330179" />
      <line x1="-35.8296310552" y1="52.4178622026" x2="-36.405486578" y2="51.1239990799" />
      <line x1="-35.1383678969" y1="53.5719071151" x2="-35.8296310552" y2="52.4178622026" />
      <line x1="-34.3390246645" y1="54.5739006542" x2="-35.1383678969" y2="53.5719071151" />
      <line x1="-33.4400745953" y1="55.4132214392" x2="-34.3390246645" y2="54.5739006542" />
      <line x1="-32.4510467835" y1="56.0809724609" x2="-33.4400745953" y2="55.4132214392" />
      <line x1="-31.4872251932" y1="56.5313845991" x2="-32.4510467835" y2="56.0809724609" />
      <line x1="-30.2455374098" y1="56.8753456209" x2="-31.4872251932" y2="56.5313845991" />
      <line x1="-29.0524347959" y1="56.993547206" x2="-30.2455374098" y2="56.8753456209" />
      <line x1="-27.8157645128" y1="56.9234271816" x2="-29.0524347959" y2="56.993547206" />
      <line x1="-26.5486355733" y1="56.6657288373" x2="-27.8157645128" y2="56.9234271816" />
      <line x1="-25.2644798592" y1="56.2231838398" x2="-26.5486355733" y2="56.6657288373" />
      <line x1="-23.9769097406" y1="55.600483276" x2="-25.2644798592" y2="56.2231838398" />
      <line x1="-22.6995737812" y1="54.8042279269" x2="-23.9769097406" y2="55.600483276" />
      <line x1="-21.4460120597" y1="53.8428582972" x2="-22.6995737812" y2="54.8042279269" />
      <line x1="-20.2295126423" y1="52.7265651443" x2="-21.4460120597" y2="53.8428582972" />
      <line x1="-19.0629707256" y1="51.4671814531" x2="-20.2295126423" y2="52.7265651443" />
      <line x1="-17.9587519438" y1="50.0780570042" x2="-19.0629707256" y2="51.4671814531" />
      <line x1="-16.928561291" y1="48.5739168622" x2="-17.9587519438" y2="50.0780570042" />
      <line x1="-15.9833190442" y1="46.9707052869" x2="-16.928561291" y2="48.5739168622" />
      <line x1="-15.1330450065" y1="45.2854167197" x2="-15.9833190442" y2="46.9707052869" />
      <line x1="-14.3867522941" y1="43.5359156388" x2="-15.1330450065" y2="45.2854167197" />
      <line x1="-13.7523517955" y1="41.7407471908" x2="-14.3867522941" y2="43.5359156388" />
      <line x1="-13.2365683137" y1="39.9189406079" x2="-13.7523517955" y2="41.7407471908" />
      <line x1="-12.844869282" y1="38.0898074931" x2="-13.2365683137" y2="39.9189406079" />
      <line x1="-12.5814068076" y1="36.2727371124" x2="-12.844869282" y2="38.0898074931" />
      <line x1="-12.4489736583" y1="34.4869908638" x2="-12.5814068076" y2="36.2727371124" />
      <line x1="-12.4489736583" y1="32.7514981019" x2="-12.4489736583" y2="34.4869908638" />
      <line x1="-12.5814068076" y1="31.0846554816" x2="-12.4489736583" y2="32.7514981019" />
      <line x1="-12.844869282" y1="29.5041319495" x2="-12.5814068076" y2="31.0846554816" />
      <line x1="-13.2365683137" y1="28.0266814481" x2="-12.844869282" y2="29.5041319495" />
      <line x1="-13.7523517955" y1="26.6679653203" x2="-13.2365683137" y2="28.0266814481" />
      <line x1="-14.3867522941" y1="25.442386295" x2="-13.7523517955" y2="26.6679653203" />
      <line x1="-15.1330450065" y1="24.3629358149" x2="-14.3867522941" y2="25.442386295" />
      <line x1="-15.9833190442" y1="23.4410563235" x2="-15.1330450065" y2="24.3629358149" />
      <line x1="-16.928561291" y1="22.6865199728" x2="-15.9833190442" y2="23.4410563235" />
      <line x1="-17.9587519438" y1="22.1073250358" x2="-16.928561291" y2="22.6865199728" />
      <line x1="-18.3977467021" y1="21.9240796957" x2="-17.9587519438" y2="22.1073250358" />
      <line x1="-19.0629707256" y1="21.7096111229" x2="-18.3977467021" y2="21.9240796957" />
      <line x1="-20.2295126423" y1="21.4975941006" x2="-19.0629707256" y2="21.7096111229" />
      <line x1="-21.4460120597" y1="21.473521402" x2="-20.2295126423" y2="21.4975941006" />
      <line x1="-22.6995737812" y1="21.6376482037" x2="-21.4460120597" y2="21.473521402" />
      <line x1="-23.9769097406" y1="21.9882347208" x2="-22.6995737812" y2="21.6376482037" />
      <line x1="-25.2644798592" y1="22.521564649" x2="-23.9769097406" y2="21.9882347208" />
      <line x1="-26.5486355733" y1="23.2319845584" x2="-25.2644798592" y2="22.521564649" />
      <line x1="-27.8157645128" y1="24.1119638212" x2="-26.5486355733" y2="23.2319845584" />
      <line x1="-29.0524347959" y1="25.1521744383" x2="-27.8157645128" y2="24.1119638212" />
      <line x1="-30.2455374098" y1="26.3415899184" x2="-29.0524347959" y2="25.1521744383" />
      <line x1="-31.38242517" y1="27.6676021615" x2="-30.2455374098" y2="26.3415899184" />
      <line x1="-32.4510467835" y1="29.1161551079" x2="-31.38242517" y2="27.6676021615" />
      <line x1="-33.4400745953" y1="30.6718937362" x2="-32.4510467835" y2="29.1161551079" />
      <line x1="-34.3390246645" y1="32.3183268297" x2="-33.4400745953" y2="30.6718937362" />
      <line x1="-35.1383678969" y1="34.0380017881" x2="-34.3390246645" y2="32.3183268297" />
      <line x1="-35.8296310552" y1="35.8126896291" x2="-35.1383678969" y2="34.0380017881" />
      <line x1="-36.405486578" y1="37.6235782201" x2="-35.8296310552" y2="35.8126896291" />
      <line x1="-36.8598302536" y1="39.4514716914" x2="-36.405486578" y2="37.6235782201" />
      <line x1="-37.187845926" y1="41.2769939176" x2="-36.8598302536" y2="39.4514716914" />
      <line x1="-37.3860565473" y1="43.0807939089" x2="-37.187845926" y2="41.2769939176" />
      <line x1="-37.4523610358" y1="44.8437509367" x2="-37.3860565473" y2="43.0807939089" />
      <line x1="7.8178612018" y1="44.4867945279" x2="6.8397558915" y2="45.00560529" />
      <line x1="8.7817035357" y1="43.816108601" x2="7.8178612018" y2="44.4867945279" />
      <line x1="9.6118652366" y1="43.1033471649" x2="8.7817035357" y2="43.816108601" />
      <line x1="9.7172279006" y1="43.0033276213" x2="9.6118652366" y2="43.1033471649" />
      <line x1="10.6107922442" y1="42.0603037661" x2="9.7172279006" y2="43.0033276213" />
      <line x1="11.4493663859" y1="41.000788447" x2="10.6107922442" y2="42.0603037661" />
      <line x1="12.220722026" y1="39.8402317837" x2="11.4493663859" y2="41.000788447" />
      <line x1="12.9136110622" y1="38.5955573061" x2="12.220722026" y2="39.8402317837" />
      <line x1="13.5179296116" y1="37.2849151713" x2="12.9136110622" y2="38.5955573061" />
      <line x1="14.0248653489" y1="35.9274174935" x2="13.5179296116" y2="37.2849151713" />
      <line x1="14.4270260092" y1="34.5428596462" x2="14.0248653489" y2="35.9274174935" />
      <line x1="14.7185471844" y1="33.1514316011" x2="14.4270260092" y2="34.5428596462" />
      <line x1="14.8951778392" y1="31.773423513" x2="14.7185471844" y2="33.1514316011" />
      <line x1="14.9543423008" y1="30.4289298438" x2="14.8951778392" y2="31.773423513" />
      <line x1="6.8397558915" y1="45.00560529" x2="3.4586784316" y2="46.5234366621" />
      <line x1="-4.5967435184" y1="40.5237257741" x2="-4.6559079786" y2="39.2323522572" />
      <line x1="-4.4201128635" y1="41.7431479958" x2="-4.5967435184" y2="40.5237257741" />
      <line x1="-4.1285916882" y1="42.8728370002" x2="-4.4201128635" y2="41.7431479958" />
      <line x1="-3.7264310278" y1="43.8963193771" x2="-4.1285916882" y2="42.8728370002" />
      <line x1="-3.2194952905" y1="44.7986704486" x2="-3.7264310278" y2="43.8963193771" />
      <line x1="-2.6151767409" y1="45.5667319036" x2="-3.2194952905" y2="44.7986704486" />
      <line x1="-1.9222877047" y1="46.1893036763" x2="-2.6151767409" y2="45.5667319036" />
      <line x1="-1.1509320645" y1="46.6573072682" x2="-1.9222877047" y2="46.1893036763" />
      <line x1="-0.3123579227" y1="46.9639181327" x2="-1.1509320645" y2="46.6573072682" />
      <line x1="0.5812064209" y1="47.104665193" x2="-0.3123579227" y2="46.9639181327" />
      <line x1="1.5167307858" y1="47.07749604" x2="0.5812064209" y2="47.104665193" />
      <line x1="2.4805731198" y1="46.882806861" x2="1.5167307858" y2="47.07749604" />
      <line x1="3.4586784316" y1="46.5234366621" x2="2.4805731198" y2="46.882806861" />
      <line x1="-4.6559079786" y1="39.2323522572" x2="-4.6559079784" y2="21.0092194775" />
      <line x1="2.4805731189" y1="6.9513547928" x2="3.4586784307" y2="6.4325440313" />
      <line x1="1.516730785" y1="7.6220407197" x2="2.4805731189" y2="6.9513547928" />
      <line x1="0.5812064201" y1="8.4348216994" x2="1.516730785" y2="7.6220407197" />
      <line x1="-0.3123579235" y1="9.3778455546" x2="0.5812064201" y2="8.4348216994" />
      <line x1="-1.1509320652" y1="10.4373608737" x2="-0.3123579235" y2="9.3778455546" />
      <line x1="-1.9222877053" y1="11.597917537" x2="-1.1509320652" y2="10.4373608737" />
      <line x1="-2.6151767415" y1="12.8425920146" x2="-1.9222877053" y2="11.597917537" />
      <line x1="-3.2194952909" y1="14.1532341494" x2="-2.6151767415" y2="12.8425920146" />
      <line x1="-3.7264310282" y1="15.5107318272" x2="-3.2194952909" y2="14.1532341494" />
      <line x1="-4.1285916885" y1="16.8952896745" x2="-3.7264310282" y2="15.5107318272" />
      <line x1="-4.4201128637" y1="18.2867177195" x2="-4.1285916885" y2="16.8952896745" />
      <line x1="-4.5967435185" y1="19.6647258077" x2="-4.4201128637" y2="18.2867177195" />
      <line x1="-4.6559079784" y1="21.0092194775" x2="-4.5967435185" y2="19.6647258077" />
      <line x1="3.4586784307" y1="6.4325440313" x2="6.8397558907" y2="4.9147126593" />
      <line x1="14.8951778392" y1="10.9144235478" x2="14.9543423008" y2="12.2057970655" />
      <line x1="14.7185471844" y1="9.6950013259" x2="14.8951778392" y2="10.9144235478" />
      <line x1="14.4270260092" y1="8.5653123214" x2="14.7185471844" y2="9.6950013259" />
      <line x1="14.0248653488" y1="7.5418299442" x2="14.4270260092" y2="8.5653123214" />
      <line x1="13.5179296115" y1="6.6394788726" x2="14.0248653488" y2="7.5418299442" />
      <line x1="12.913611062" y1="5.8714174175" x2="13.5179296115" y2="6.6394788726" />
      <line x1="12.2207220257" y1="5.2488456446" x2="12.913611062" y2="5.8714174175" />
      <line x1="11.4493663855" y1="4.7808420527" x2="12.2207220257" y2="5.2488456446" />
      <line x1="10.6107922437" y1="4.474231188" x2="11.4493663855" y2="4.7808420527" />
      <line x1="9.7172279" y1="4.3334841277" x2="10.6107922437" y2="4.474231188" />
      <line x1="8.781703535" y1="4.3606532807" x2="9.7172279" y2="4.3334841277" />
      <line x1="7.817861201" y1="4.5553424597" x2="8.781703535" y2="4.3606532807" />
      <line x1="6.8397558907" y1="4.9147126593" x2="7.817861201" y2="4.5553424597" />
      <line x1="14.9543423008" y1="12.2057970655" x2="14.9543423008" y2="30.4289298438" />
      <line x1="-31.261228593" y1="61.0828757457" x2="-31.1973674117" y2="61.7628829127" />
      <line x1="-31.4491007571" y1="60.499725174" x2="-31.261228593" y2="61.0828757457" />
      <line x1="-31.7500654568" y1="60.047321789" x2="-31.4491007571" y2="60.499725174" />
      <line x1="-32.1466317176" y1="59.7519576312" x2="-31.7500654568" y2="60.047321789" />
      <line x1="-32.2457447662" y1="59.709480583" x2="-32.1466317176" y2="59.7519576312" />
      <line x1="-32.61575255" y1="59.6307981917" x2="-32.2457447662" y2="59.709480583" />
      <line x1="-33.1301643563" y1="59.6908848169" x2="-32.61575255" y2="59.6307981917" />
      <line x1="-33.6599713922" y1="59.9287254904" x2="-33.1301643563" y2="59.6908848169" />
      <line x1="-34.1743831985" y1="60.3304977768" x2="-33.6599713922" y2="59.9287254904" />
      <line x1="-34.6435040309" y1="60.8728521312" x2="-34.1743831985" y2="60.3304977768" />
      <line x1="-35.0400702917" y1="61.52426889" x2="-34.6435040309" y2="60.8728521312" />
      <line x1="-35.3410349913" y1="62.2468900789" x2="-35.0400702917" y2="61.52426889" />
      <line x1="-35.5289071555" y1="62.9987195809" x2="-35.3410349913" y2="62.2468900789" />
      <line x1="-35.5927683367" y1="63.7360637984" x2="-35.5289071555" y2="62.9987195809" />
      <line x1="-35.5289071555" y1="64.4160709654" x2="-35.5927683367" y2="63.7360637984" />
      <line x1="-35.3410349913" y1="64.9992215371" x2="-35.5289071555" y2="64.4160709654" />
      <line x1="-35.0400702917" y1="65.4516249221" x2="-35.3410349913" y2="64.9992215371" />
      <line x1="-34.6435040309" y1="65.7469890799" x2="-35.0400702917" y2="65.4516249221" />
      <line x1="-34.5443909823" y1="65.7894661281" x2="-34.6435040309" y2="65.7469890799" />
      <line x1="-34.1743831985" y1="65.8681485194" x2="-34.5443909823" y2="65.7894661281" />
      <line x1="-33.6599713922" y1="65.8080618942" x2="-34.1743831985" y2="65.8681485194" />
      <line x1="-33.1301643563" y1="65.5702212207" x2="-33.6599713922" y2="65.8080618942" />
      <line x1="-32.61575255" y1="65.1684489343" x2="-33.1301643563" y2="65.5702212207" />
      <line x1="-32.1466317176" y1="64.6260945798" x2="-32.61575255" y2="65.1684489343" />
      <line x1="-31.7500654568" y1="63.9746778211" x2="-32.1466317176" y2="64.6260945798" />
      <line x1="-31.4491007571" y1="63.2520566322" x2="-31.7500654568" y2="63.9746778211" />
      <line x1="-31.261228593" y1="62.5002271302" x2="-31.4491007571" y2="63.2520566322" />
      <line x1="-31.1973674117" y1="61.7628829127" x2="-31.261228593" y2="62.5002271302" />
      <line x1="-14.35584042" y1="53.4937184932" x2="-14.2919792387" y2="54.1737256602" />
      <line x1="-14.5437125841" y1="52.9105679214" x2="-14.35584042" y2="53.4937184932" />
      <line x1="-14.8446772837" y1="52.4581645365" x2="-14.5437125841" y2="52.9105679214" />
      <line x1="-15.2412435446" y1="52.1628003787" x2="-14.8446772837" y2="52.4581645365" />
      <line x1="-15.3403565931" y1="52.1203233305" x2="-15.2412435446" y2="52.1628003787" />
      <line x1="-15.7103643769" y1="52.0416409392" x2="-15.3403565931" y2="52.1203233305" />
      <line x1="-16.2247761832" y1="52.1017275644" x2="-15.7103643769" y2="52.0416409392" />
      <line x1="-16.7545832191" y1="52.3395682379" x2="-16.2247761832" y2="52.1017275644" />
      <line x1="-17.2689950254" y1="52.7413405243" x2="-16.7545832191" y2="52.3395682379" />
      <line x1="-17.7381158578" y1="53.2836948787" x2="-17.2689950254" y2="52.7413405243" />
      <line x1="-18.1346821186" y1="53.9351116375" x2="-17.7381158578" y2="53.2836948787" />
      <line x1="-18.4356468183" y1="54.6577328263" x2="-18.1346821186" y2="53.9351116375" />
      <line x1="-18.6235189824" y1="55.4095623284" x2="-18.4356468183" y2="54.6577328263" />
      <line x1="-18.6873801637" y1="56.1469065459" x2="-18.6235189824" y2="55.4095623284" />
      <line x1="-18.6235189824" y1="56.8269137129" x2="-18.6873801637" y2="56.1469065459" />
      <line x1="-18.4356468183" y1="57.4100642846" x2="-18.6235189824" y2="56.8269137129" />
      <line x1="-18.1346821186" y1="57.8624676696" x2="-18.4356468183" y2="57.4100642846" />
      <line x1="-17.7381158578" y1="58.1578318274" x2="-18.1346821186" y2="57.8624676696" />
      <line x1="-17.6390028093" y1="58.2003088756" x2="-17.7381158578" y2="58.1578318274" />
      <line x1="-17.2689950254" y1="58.2789912668" x2="-17.6390028093" y2="58.2003088756" />
      <line x1="-16.7545832191" y1="58.2189046417" x2="-17.2689950254" y2="58.2789912668" />
      <line x1="-16.2247761832" y1="57.9810639682" x2="-16.7545832191" y2="58.2189046417" />
      <line x1="-15.7103643769" y1="57.5792916818" x2="-16.2247761832" y2="57.9810639682" />
      <line x1="-15.2412435446" y1="57.0369373273" x2="-15.7103643769" y2="57.5792916818" />
      <line x1="-14.8446772837" y1="56.3855205686" x2="-15.2412435446" y2="57.0369373273" />
      <line x1="-14.5437125841" y1="55.6628993797" x2="-14.8446772837" y2="56.3855205686" />
      <line x1="-14.35584042" y1="54.9110698776" x2="-14.5437125841" y2="55.6628993797" />
      <line x1="-14.2919792387" y1="54.1737256602" x2="-14.35584042" y2="54.9110698776" />
      <line x1="-14.35584042" y1="14.0394781742" x2="-14.2919792387" y2="14.7194853413" />
      <line x1="-14.5437125841" y1="13.4563276025" x2="-14.35584042" y2="14.0394781742" />
      <line x1="-14.8446772837" y1="13.0039242175" x2="-14.5437125841" y2="13.4563276025" />
      <line x1="-15.2412435446" y1="12.7085600597" x2="-14.8446772837" y2="13.0039242175" />
      <line x1="-15.3403565931" y1="12.6660830116" x2="-15.2412435446" y2="12.7085600597" />
      <line x1="-15.7103643769" y1="12.5874006203" x2="-15.3403565931" y2="12.6660830116" />
      <line x1="-16.2247761832" y1="12.6474872454" x2="-15.7103643769" y2="12.5874006203" />
      <line x1="-16.7545832191" y1="12.8853279189" x2="-16.2247761832" y2="12.6474872454" />
      <line x1="-17.2689950254" y1="13.2871002053" x2="-16.7545832191" y2="12.8853279189" />
      <line x1="-17.7381158578" y1="13.8294545598" x2="-17.2689950254" y2="13.2871002053" />
      <line x1="-18.1346821186" y1="14.4808713185" x2="-17.7381158578" y2="13.8294545598" />
      <line x1="-18.4356468183" y1="15.2034925074" x2="-18.1346821186" y2="14.4808713185" />
      <line x1="-18.6235189824" y1="15.9553220095" x2="-18.4356468183" y2="15.2034925074" />
      <line x1="-18.6873801637" y1="16.6926662269" x2="-18.6235189824" y2="15.9553220095" />
      <line x1="-18.6235189824" y1="17.3726733939" x2="-18.6873801637" y2="16.6926662269" />
      <line x1="-18.4356468183" y1="17.9558239657" x2="-18.6235189824" y2="17.3726733939" />
      <line x1="-18.1346821186" y1="18.4082273506" x2="-18.4356468183" y2="17.9558239657" />
      <line x1="-17.7381158578" y1="18.7035915084" x2="-18.1346821186" y2="18.4082273506" />
      <line x1="-17.6390028093" y1="18.7460685566" x2="-17.7381158578" y2="18.7035915084" />
      <line x1="-17.2689950254" y1="18.8247509479" x2="-17.6390028093" y2="18.7460685566" />
      <line x1="-16.7545832191" y1="18.7646643227" x2="-17.2689950254" y2="18.8247509479" />
      <line x1="-16.2247761832" y1="18.5268236492" x2="-16.7545832191" y2="18.7646643227" />
      <line x1="-15.7103643769" y1="18.1250513628" x2="-16.2247761832" y2="18.5268236492" />
      <line x1="-15.2412435446" y1="17.5826970084" x2="-15.7103643769" y2="18.1250513628" />
      <line x1="-14.8446772837" y1="16.9312802496" x2="-15.2412435446" y2="17.5826970084" />
      <line x1="-14.5437125841" y1="16.2086590608" x2="-14.8446772837" y2="16.9312802496" />
      <line x1="-14.35584042" y1="15.4568295587" x2="-14.5437125841" y2="16.2086590608" />
      <line x1="-14.2919792387" y1="14.7194853413" x2="-14.35584042" y2="15.4568295587" />
      <line x1="-31.261228593" y1="21.6286354268" x2="-31.1973674117" y2="22.3086425938" />
      <line x1="-31.4491007571" y1="21.045484855" x2="-31.261228593" y2="21.6286354268" />
      <line x1="-31.7500654568" y1="20.59308147" x2="-31.4491007571" y2="21.045484855" />
      <line x1="-32.1466317176" y1="20.2977173122" x2="-31.7500654568" y2="20.59308147" />
      <line x1="-32.2457447662" y1="20.2552402641" x2="-32.1466317176" y2="20.2977173122" />
      <line x1="-32.61575255" y1="20.1765578728" x2="-32.2457447662" y2="20.2552402641" />
      <line x1="-33.1301643563" y1="20.2366444979" x2="-32.61575255" y2="20.1765578728" />
      <line x1="-33.6599713922" y1="20.4744851714" x2="-33.1301643563" y2="20.2366444979" />
      <line x1="-34.1743831985" y1="20.8762574579" x2="-33.6599713922" y2="20.4744851714" />
      <line x1="-34.6435040309" y1="21.4186118123" x2="-34.1743831985" y2="20.8762574579" />
      <line x1="-35.0400702917" y1="22.070028571" x2="-34.6435040309" y2="21.4186118123" />
      <line x1="-35.3410349913" y1="22.7926497599" x2="-35.0400702917" y2="22.070028571" />
      <line x1="-35.5289071555" y1="23.544479262" x2="-35.3410349913" y2="22.7926497599" />
      <line x1="-35.5927683367" y1="24.2818234794" x2="-35.5289071555" y2="23.544479262" />
      <line x1="-35.5289071555" y1="24.9618306464" x2="-35.5927683367" y2="24.2818234794" />
      <line x1="-35.3410349913" y1="25.5449812182" x2="-35.5289071555" y2="24.9618306464" />
      <line x1="-35.0400702917" y1="25.9973846031" x2="-35.3410349913" y2="25.5449812182" />
      <line x1="-34.6435040309" y1="26.292748761" x2="-35.0400702917" y2="25.9973846031" />
      <line x1="-34.5443909823" y1="26.3352258091" x2="-34.6435040309" y2="26.292748761" />
      <line x1="-34.1743831985" y1="26.4139082004" x2="-34.5443909823" y2="26.3352258091" />
      <line x1="-33.6599713922" y1="26.3538215753" x2="-34.1743831985" y2="26.4139082004" />
      <line x1="-33.1301643563" y1="26.1159809018" x2="-33.6599713922" y2="26.3538215753" />
      <line x1="-32.61575255" y1="25.7142086153" x2="-33.1301643563" y2="26.1159809018" />
      <line x1="-32.1466317176" y1="25.1718542609" x2="-32.61575255" y2="25.7142086153" />
      <line x1="-31.7500654568" y1="24.5204375021" x2="-32.1466317176" y2="25.1718542609" />
      <line x1="-31.4491007571" y1="23.7978163133" x2="-31.7500654568" y2="24.5204375021" />
      <line x1="-31.261228593" y1="23.0459868112" x2="-31.4491007571" y2="23.7978163133" />
      <line x1="-31.1973674117" y1="22.3086425938" x2="-31.261228593" y2="23.0459868112" />
      <line x1="-5.9031463334" y1="29.9720197075" x2="-5.8392851522" y2="30.6520268745" />
      <line x1="-6.0910184975" y1="29.3888691357" x2="-5.9031463334" y2="29.9720197075" />
      <line x1="-6.3919831972" y1="28.9364657508" x2="-6.0910184975" y2="29.3888691357" />
      <line x1="-6.788549458" y1="28.6411015929" x2="-6.3919831972" y2="28.9364657508" />
      <line x1="-6.8876625066" y1="28.5986245448" x2="-6.788549458" y2="28.6411015929" />
      <line x1="-7.2576702904" y1="28.5199421535" x2="-6.8876625066" y2="28.5986245448" />
      <line x1="-7.7720820967" y1="28.5800287786" x2="-7.2576702904" y2="28.5199421535" />
      <line x1="-8.3018891326" y1="28.8178694521" x2="-7.7720820967" y2="28.5800287786" />
      <line x1="-8.8163009389" y1="29.2196417386" x2="-8.3018891326" y2="28.8178694521" />
      <line x1="-9.2854217713" y1="29.761996093" x2="-8.8163009389" y2="29.2196417386" />
      <line x1="-9.6819880321" y1="30.4134128518" x2="-9.2854217713" y2="29.761996093" />
      <line x1="-9.9829527317" y1="31.1360340406" x2="-9.6819880321" y2="30.4134128518" />
      <line x1="-10.1708248959" y1="31.8878635427" x2="-9.9829527317" y2="31.1360340406" />
      <line x1="-10.2346860771" y1="32.6252077601" x2="-10.1708248959" y2="31.8878635427" />
      <line x1="-10.1708248959" y1="33.3052149271" x2="-10.2346860771" y2="32.6252077601" />
      <line x1="-9.9829527317" y1="33.8883654989" x2="-10.1708248959" y2="33.3052149271" />
      <line x1="-9.6819880321" y1="34.3407688838" x2="-9.9829527317" y2="33.8883654989" />
      <line x1="-9.2854217713" y1="34.6361330417" x2="-9.6819880321" y2="34.3407688838" />
      <line x1="-9.1863087227" y1="34.6786100898" x2="-9.2854217713" y2="34.6361330417" />
      <line x1="-8.8163009389" y1="34.7572924811" x2="-9.1863087227" y2="34.6786100898" />
      <line x1="-8.3018891326" y1="34.697205856" x2="-8.8163009389" y2="34.7572924811" />
      <line x1="-7.7720820967" y1="34.4593651825" x2="-8.3018891326" y2="34.697205856" />
      <line x1="-7.2576702904" y1="34.057592896" x2="-7.7720820967" y2="34.4593651825" />
      <line x1="-6.788549458" y1="33.5152385416" x2="-7.2576702904" y2="34.057592896" />
      <line x1="-6.3919831972" y1="32.8638217828" x2="-6.788549458" y2="33.5152385416" />
      <line x1="-6.0910184975" y1="32.141200594" x2="-6.3919831972" y2="32.8638217828" />
      <line x1="-5.9031463334" y1="31.3893710919" x2="-6.0910184975" y2="32.141200594" />
      <line x1="-5.8392851522" y1="30.6520268745" x2="-5.9031463334" y2="31.3893710919" />
      <line x1="-39.7139226796" y1="45.1503342125" x2="-39.6500614983" y2="45.8303413795" />
      <line x1="-39.9017948437" y1="44.5671836407" x2="-39.7139226796" y2="45.1503342125" />
      <line x1="-40.2027595433" y1="44.1147802558" x2="-39.9017948437" y2="44.5671836407" />
      <line x1="-40.5993258042" y1="43.819416098" x2="-40.2027595433" y2="44.1147802558" />
      <line x1="-40.6984388527" y1="43.7769390498" x2="-40.5993258042" y2="43.819416098" />
      <line x1="-41.0684466365" y1="43.6982566585" x2="-40.6984388527" y2="43.7769390498" />
      <line x1="-41.5828584428" y1="43.7583432837" x2="-41.0684466365" y2="43.6982566585" />
      <line x1="-42.1126654787" y1="43.9961839572" x2="-41.5828584428" y2="43.7583432837" />
      <line x1="-42.627077285" y1="44.3979562436" x2="-42.1126654787" y2="43.9961839572" />
      <line x1="-43.0961981174" y1="44.940310598" x2="-42.627077285" y2="44.3979562436" />
      <line x1="-43.4927643782" y1="45.5917273568" x2="-43.0961981174" y2="44.940310598" />
      <line x1="-43.7937290779" y1="46.3143485456" x2="-43.4927643782" y2="45.5917273568" />
      <line x1="-43.981601242" y1="47.0661780477" x2="-43.7937290779" y2="46.3143485456" />
      <line x1="-44.0454624233" y1="47.8035222651" x2="-43.981601242" y2="47.0661780477" />
      <line x1="-43.981601242" y1="48.4835294322" x2="-44.0454624233" y2="47.8035222651" />
      <line x1="-43.7937290779" y1="49.0666800039" x2="-43.981601242" y2="48.4835294322" />
      <line x1="-43.4927643782" y1="49.5190833889" x2="-43.7937290779" y2="49.0666800039" />
      <line x1="-43.0961981174" y1="49.8144475467" x2="-43.4927643782" y2="49.5190833889" />
      <line x1="-42.9970850689" y1="49.8569245948" x2="-43.0961981174" y2="49.8144475467" />
      <line x1="-42.627077285" y1="49.9356069861" x2="-42.9970850689" y2="49.8569245948" />
      <line x1="-42.1126654787" y1="49.875520361" x2="-42.627077285" y2="49.9356069861" />
      <line x1="-41.5828584428" y1="49.6376796875" x2="-42.1126654787" y2="49.875520361" />
      <line x1="-41.0684466365" y1="49.2359074011" x2="-41.5828584428" y2="49.6376796875" />
      <line x1="-40.5993258042" y1="48.6935530466" x2="-41.0684466365" y2="49.2359074011" />
      <line x1="-40.2027595433" y1="48.0421362879" x2="-40.5993258042" y2="48.6935530466" />
      <line x1="-39.9017948437" y1="47.319515099" x2="-40.2027595433" y2="48.0421362879" />
      <line x1="-39.7139226796" y1="46.5676855969" x2="-39.9017948437" y2="47.319515099" />
      <line x1="-39.6500614983" y1="45.8303413795" x2="-39.7139226796" y2="46.5676855969" />
      <line x1="17.6592044084" y1="-10.192860344" x2="10.1532120596" y2="-6.8232745239" />
      <line x1="10.1532120596" y1="-6.8232745239" x2="10.1532120596" y2="-10.4679011269" />
      <line x1="10.1532120596" y1="-10.4679011269" x2="3.5262998957" y2="-7.492951484" />
      <line x1="3.5262998957" y1="-7.492951484" x2="3.5262998957" y2="-3.8483248809" />
      <line x1="3.5262998957" y1="-3.8483248809" x2="-24.9423737877" y2="8.9318159323" />
      <line x1="-26.6635199163" y1="70.2074947834" x2="-24.9423737877" y2="69.5237332073" />
      <line x1="-28.3745656751" y1="70.7094550428" x2="-26.6635199163" y2="70.2074947834" />
      <line x1="-30.0654699671" y1="71.0266682829" x2="-28.3745656751" y2="70.7094550428" />
      <line x1="-31.7263098937" y1="71.1572729705" x2="-30.0654699671" y2="71.0266682829" />
      <line x1="-33.3473389856" y1="71.1005026653" x2="-31.7263098937" y2="71.1572729705" />
      <line x1="-34.9190443997" y1="70.856690518" x2="-33.3473389856" y2="71.1005026653" />
      <line x1="-36.4322027436" y1="70.4272673152" x2="-34.9190443997" y2="70.856690518" />
      <line x1="-36.7053107637" y1="70.3275464928" x2="-36.4322027436" y2="70.4272673152" />
      <line x1="-37.8779342024" y1="69.814753083" x2="-36.7053107637" y2="70.3275464928" />
      <line x1="-39.2477546491" y1="69.0227422986" x2="-37.8779342024" y2="69.814753083" />
      <line x1="-40.5336254327" y1="68.055882796" x2="-39.2477546491" y2="69.0227422986" />
      <line x1="-41.728000552" y1="66.9198484914" x2="-40.5336254327" y2="68.055882796" />
      <line x1="-42.8238709389" y1="65.6213060858" x2="-41.728000552" y2="66.9198484914" />
      <line x1="-43.8148055903" y1="64.1678759423" x2="-42.8238709389" y2="65.6213060858" />
      <line x1="-44.6949893076" y1="62.5680873669" x2="-43.8148055903" y2="64.1678759423" />
      <line x1="-45.4592568227" y1="60.8313285552" x2="-44.6949893076" y2="62.5680873669" />
      <line x1="-46.10312311" y1="58.9677914985" x2="-45.4592568227" y2="60.8313285552" />
      <line x1="-46.6228097061" y1="56.9884121731" x2="-46.10312311" y2="58.9677914985" />
      <line x1="-47.0152668833" y1="54.904806364" x2="-46.6228097061" y2="56.9884121731" />
      <line x1="-47.278191547" y1="52.7292014987" x2="-47.0152668833" y2="54.904806364" />
      <line x1="-47.4100407506" y1="50.4743648916" x2="-47.278191547" y2="52.7292014987" />
      <line x1="-47.4100407506" y1="48.1535288204" x2="-47.4100407506" y2="50.4743648916" />
      <line x1="-47.278191547" y1="45.7803128742" x2="-47.4100407506" y2="48.1535288204" />
      <line x1="-47.0152668833" y1="43.3686440276" x2="-47.278191547" y2="45.7803128742" />
      <line x1="-46.6228097061" y1="40.9326749126" x2="-47.0152668833" y2="43.3686440276" />
      <line x1="-46.10312311" y1="38.4867007644" x2="-46.6228097061" y2="40.9326749126" />
      <line x1="-45.4592568227" y1="36.0450755319" x2="-46.10312311" y2="38.4867007644" />
      <line x1="-44.6949893076" y1="33.622127643" x2="-45.4592568227" y2="36.0450755319" />
      <line x1="-43.8148055903" y1="31.2320759192" x2="-44.6949893076" y2="33.622127643" />
      <line x1="-42.8238709389" y1="28.8889461345" x2="-43.8148055903" y2="31.2320759192" />
      <line x1="-41.728000552" y1="26.606488706" x2="-42.8238709389" y2="28.8889461345" />
      <line x1="-40.5336254327" y1="24.3980980017" x2="-41.728000552" y2="26.606488706" />
      <line x1="-39.2477546491" y1="22.2767337362" x2="-40.5336254327" y2="24.3980980017" />
      <line x1="-37.8779342024" y1="20.2548449186" x2="-39.2477546491" y2="22.2767337362" />
      <line x1="-36.4322027436" y1="18.3442967964" x2="-37.8779342024" y2="20.2548449186" />
      <line x1="-34.9190443997" y1="16.5563012258" x2="-36.4322027436" y2="18.3442967964" />
      <line x1="-33.3473389856" y1="14.9013508757" x2="-34.9190443997" y2="16.5563012258" />
      <line x1="-31.7263098937" y1="13.3891576528" x2="-33.3473389856" y2="14.9013508757" />
      <line x1="-30.0654699671" y1="12.0285957082" x2="-31.7263098937" y2="13.3891576528" />
      <line x1="-28.3745656751" y1="10.8276493605" x2="-30.0654699671" y2="12.0285957082" />
      <line x1="-26.6635199163" y1="9.7933662403" x2="-28.3745656751" y2="10.8276493605" />
      <line x1="-24.9423737877" y1="8.9318159323" x2="-26.6635199163" y2="9.7933662403" />
      <line x1="-24.9423737877" y1="69.5237332073" x2="3.5262998957" y2="56.7435923941" />
      <line x1="3.5262998957" y1="56.7435923941" x2="3.5262998957" y2="60.3882189971" />
      <line x1="3.5262998957" y1="60.3882189971" x2="10.1532120596" y2="57.4132693541" />
      <line x1="10.1532120596" y1="57.4132693541" x2="10.1532120596" y2="53.7686427511" />
      <line x1="10.1532120596" y1="53.7686427511" x2="17.6592044084" y2="50.399056931" />
      <line x1="17.6592044084" y1="-10.192860344" x2="17.6592044084" y2="50.399056931" />
      <line x1="-24.9423737877" y1="69.5237332073" x2="-19.0487429956" y2="71.7528649171" />
      <line x1="-1.8300692271" y1="39.1825026481" x2="-4.6559079786" y2="39.2323522572" />
      <line x1="4.9320860965" y1="45.258406303" x2="3.4586784316" y2="46.5234366621" />
      <line x1="8.3131636217" y1="43.7405749015" x2="6.8397558915" y2="45.00560529" />
      <line x1="8.3131636214" y1="7.294308873" x2="6.8397558907" y2="4.9147126593" />
      <line x1="-1.830069227" y1="20.9593697804" x2="-4.6559079784" y2="21.0092194775" />
      <line x1="4.9320860961" y1="8.8121402745" x2="3.4586784307" y2="6.4325440313" />
      <line x1="-1.830069227" y1="20.9593697804" x2="1.1167461678" y2="22.0739356309" />
      <line x1="-1.8300692271" y1="39.1825026481" x2="1.1167461679" y2="40.2970684998" />
      <line x1="8.3131636214" y1="7.294308873" x2="11.2599790196" y2="8.4088747263" />
      <line x1="4.9320860961" y1="8.8121402745" x2="7.8789014932" y2="9.926706128" />
      <line x1="1.2377228119" y1="23.2383511804" x2="1.1167461678" y2="22.0739356309" />
      <line x1="1.237722812" y1="41.461483962" x2="1.1167461679" y2="40.2970684998" />
      <line x1="-31.9032310366" y1="72.1438238557" x2="-30.8116799717" y2="72.5566782026" />
      <line x1="-31.9032310366" y1="72.1438238557" x2="-36.7053107637" y2="70.3275464928" />
    </g>
  </g>
</svg>