<?xml version='1.0' encoding='utf-8'?>
<svg width="512.9999999991mm" height="363.9261711884mm" viewBox="-2.0719200364 -12.7979323044 21.597550394 15.3214694385" version="1.1" xmlns="http://www.w3.org/2000/svg">
  <g transform="scale(1,-1)" stroke-linecap="round">
    <g fill="none" stroke="rgb(64,192,64)" stroke-width="0.04210048809753775" id="Visible">
      <line x1="-1.0764274788" y1="0.5331317899" x2="-0.1442139368" y2="1.1117117583" />
      <line x1="0.4870283868" y1="0.7990707709" x2="0.7941913998" y2="0.0532398374" />
      <line x1="-0.5382137394" y1="-0.773719747" x2="0.7941913998" y2="0.0532398374" />
      <line x1="0.7941913998" y1="0.0532398374" x2="0.8453767524" y2="0.0278888136" />
      <line x1="19.4381759453" y1="11.423149646" x2="19.4742813446" y2="11.2273445814" />
      <line x1="19.3620794769" y1="11.6515684227" x2="19.4381759453" y2="11.423149646" />
      <line x1="19.2521105753" y1="11.8749400722" x2="19.3620794769" y2="11.6515684227" />
      <line x1="19.1130754092" y1="12.0835021817" x2="19.2521105753" y2="11.8749400722" />
      <line x1="18.9510504826" y1="12.2681395861" x2="19.1130754092" y2="12.0835021817" />
      <line x1="18.7731170621" y1="12.4207827449" x2="18.9510504826" y2="12.2681395861" />
      <line x1="18.7070066932" y1="12.4663372404" x2="18.7731170621" y2="12.4207827449" />
      <line x1="18.1754838339" y1="12.7426799037" x2="18.3871909213" y2="12.6603850359" />
      <line x1="17.9714283922" y1="12.7768820603" x2="18.1754838339" y2="12.7426799037" />
      <line x1="17.7823996916" y1="12.7617553507" x2="17.9714283922" y2="12.7768820603" />
      <line x1="17.6152297218" y1="12.6978464935" x2="17.7823996916" y2="12.7617553507" />
      <line x1="17.5961066604" y1="12.6864777013" x2="17.6152297218" y2="12.6978464935" />
      <line x1="19.2326149063" y1="10.1758309632" x2="19.1781469769" y2="10.1375272552" />
      <line x1="19.3559756522" y1="10.3080522695" x2="19.2326149063" y2="10.1758309632" />
      <line x1="19.4443219937" y1="10.4801746507" x2="19.3559756522" y2="10.3080522695" />
      <line x1="19.494460864" y1="10.6859771554" x2="19.4443219937" y2="10.4801746507" />
      <line x1="19.5045801135" y1="10.918021545" x2="19.494460864" y2="10.6859771554" />
      <line x1="19.4958414572" y1="11.0295419743" x2="19.5045801135" y2="10.918021545" />
      <line x1="19.4743140064" y1="11.1679211305" x2="19.4958414572" y2="11.0295419743" />
      <line x1="19.4047564384" y1="11.42664389" x2="19.4743140064" y2="11.1679211305" />
      <line x1="19.2984214014" y1="11.6848389087" x2="19.4047564384" y2="11.42664389" />
      <line x1="19.1591521207" y1="11.9331743459" x2="19.2984214014" y2="11.6848389087" />
      <line x1="18.9919821509" y1="12.162674712" x2="19.1591521207" y2="11.9331743459" />
      <line x1="18.8029534503" y1="12.3650452657" x2="18.9919821509" y2="12.162674712" />
      <line x1="18.5988980087" y1="12.5329718079" x2="18.8029534503" y2="12.3650452657" />
      <line x1="18.535362578" y1="12.5759996148" x2="18.5988980087" y2="12.5329718079" />
      <line x1="18.3871909213" y1="12.6603850359" x2="18.535362578" y2="12.5759996148" />
      <line x1="3.4072597189" y1="-1.1213946736" x2="3.3821173415" y2="-1.1374922832" />
      <line x1="3.5911759672" y1="-0.9678916513" x2="3.4072597189" y2="-1.1213946736" />
      <line x1="3.7427979983" y1="-0.7722107688" x2="3.5911759672" y2="-0.9678916513" />
      <line x1="3.859174662" y1="-0.538160732" x2="3.7427979983" y2="-0.7722107688" />
      <line x1="3.9380408187" y1="-0.2702970585" x2="3.859174662" y2="-0.538160732" />
      <line x1="3.9778614285" y1="0.0261665898" x2="3.9380408187" y2="-0.2702970585" />
      <line x1="3.9778614285" y1="0.3454598853" x2="3.9778614285" y2="0.0261665898" />
      <line x1="3.9380408187" y1="0.6813681472" x2="3.9778614285" y2="0.3454598853" />
      <line x1="3.859174662" y1="1.0273533033" x2="3.9380408187" y2="0.6813681472" />
      <line x1="3.7427979983" y1="1.376681146" x2="3.859174662" y2="1.0273533033" />
      <line x1="3.5911759672" y1="1.7225524063" x2="3.7427979983" y2="1.376681146" />
      <line x1="3.4072597189" y1="2.0582350934" x2="3.5911759672" y2="1.7225524063" />
      <line x1="3.194628974" y1="2.3771955258" x2="3.4072597189" y2="2.0582350934" />
      <line x1="2.9574223481" y1="2.6732255014" x2="3.194628974" y2="2.3771955258" />
      <line x1="2.7002567983" y1="2.9405631335" x2="2.9574223481" y2="2.6732255014" />
      <line x1="2.4281377597" y1="3.1740049991" x2="2.7002567983" y2="2.9405631335" />
      <line x1="2.1463617196" y1="3.3690074179" x2="2.4281377597" y2="3.1740049991" />
      <line x1="1.8604131283" y1="3.5217748896" x2="2.1463617196" y2="3.3690074179" />
      <line x1="1.5758576498" y1="3.6293339692" x2="1.8604131283" y2="3.5217748896" />
      <line x1="1.2982338328" y1="3.6895911414" x2="1.5758576498" y2="3.6293339692" />
      <line x1="1.0329453091" y1="3.7013735691" x2="1.2982338328" y2="3.6895911414" />
      <line x1="0.785155618" y1="3.6644519205" x2="1.0329453091" y2="3.7013735691" />
      <line x1="0.5596877041" y1="3.5795448337" x2="0.785155618" y2="3.6644519205" />
      <line x1="0.4817649475" y1="3.5356175978" x2="0.5596877041" y2="3.5795448337" />
      <line x1="-0.5382137394" y1="1.3068515369" x2="-1.0764274788" y2="0.5331317899" />
      <line x1="-1.0764274788" y1="0.5331317899" x2="-0.5382137394" y2="-0.773719747" />
      <line x1="-0.5382137394" y1="-0.773719747" x2="0.5382137394" y2="-1.3068515369" />
      <line x1="0.5382137394" y1="-1.3068515369" x2="1.0764274788" y2="-0.5331317899" />
      <line x1="1.0764274788" y1="-0.5331317899" x2="0.5382137394" y2="0.773719747" />
      <line x1="0.5382137394" y1="0.773719747" x2="-0.5382137394" y2="1.3068515369" />
      <line x1="-2.0309108686" y1="0.6873517355" x2="-2.0508697924" y2="1.0157524819" />
      <line x1="-1.9714225748" y1="0.3455724694" x2="-2.0309108686" y2="0.6873517355" />
      <line x1="-1.8735627831" y1="-0.0029329717" x2="-1.9714225748" y2="0.3455724694" />
      <line x1="-1.7392362229" y1="-0.3513813259" x2="-1.8735627831" y2="-0.0029329717" />
      <line x1="-1.571057408" y1="-0.6929904423" x2="-1.7392362229" y2="-0.3513813259" />
      <line x1="-1.3722997477" y1="-1.0211112879" x2="-1.571057408" y2="-0.6929904423" />
      <line x1="-1.1468318338" y1="-1.3293573639" x2="-1.3722997477" y2="-1.0211112879" />
      <line x1="-0.8990421428" y1="-1.6117290109" x2="-1.1468318338" y2="-1.3293573639" />
      <line x1="-0.6337536191" y1="-1.862730186" x2="-0.8990421428" y2="-1.6117290109" />
      <line x1="-0.3561298021" y1="-2.0774754368" x2="-0.6337536191" y2="-1.862730186" />
      <line x1="-0.0715743236" y1="-2.2517849914" x2="-0.3561298021" y2="-2.0774754368" />
      <line x1="0.2143742678" y1="-2.3822661125" x2="-0.0715743236" y2="-2.2517849914" />
      <line x1="0.4961503078" y1="-2.4663791334" x2="0.2143742678" y2="-2.3822661125" />
      <line x1="0.7682693465" y1="-2.5024868901" x2="0.4961503078" y2="-2.4663791334" />
      <line x1="1.0254348962" y1="-2.4898865859" x2="0.7682693465" y2="-2.5024868901" />
      <line x1="1.2626415221" y1="-2.4288234716" x2="1.0254348962" y2="-2.4898865859" />
      <line x1="1.4501298896" y1="-2.3365836807" x2="1.2626415221" y2="-2.4288234716" />
      <line x1="1.475272267" y1="-2.3204860711" x2="1.4501298896" y2="-2.3365836807" />
      <line x1="1.6591885153" y1="-2.1669830487" x2="1.475272267" y2="-2.3204860711" />
      <line x1="1.8108105465" y1="-1.9713021663" x2="1.6591885153" y2="-2.1669830487" />
      <line x1="1.9271872101" y1="-1.7372521294" x2="1.8108105465" y2="-1.9713021663" />
      <line x1="2.0060533668" y1="-1.469388456" x2="1.9271872101" y2="-1.7372521294" />
      <line x1="2.0458739767" y1="-1.1729248077" x2="2.0060533668" y2="-1.469388456" />
      <line x1="2.0458739767" y1="-0.8536315122" x2="2.0458739767" y2="-1.1729248077" />
      <line x1="2.0060533668" y1="-0.5177232503" x2="2.0458739767" y2="-0.8536315122" />
      <line x1="1.9271872101" y1="-0.1717380942" x2="2.0060533668" y2="-0.5177232503" />
      <line x1="1.8108105465" y1="0.1775897485" x2="1.9271872101" y2="-0.1717380942" />
      <line x1="1.6591885153" y1="0.5234610088" x2="1.8108105465" y2="0.1775897485" />
      <line x1="1.475272267" y1="0.859143696" x2="1.6591885153" y2="0.5234610088" />
      <line x1="1.2626415221" y1="1.1781041284" x2="1.475272267" y2="0.859143696" />
      <line x1="1.0254348962" y1="1.474134104" x2="1.2626415221" y2="1.1781041284" />
      <line x1="0.7682693465" y1="1.741471736" x2="1.0254348962" y2="1.474134104" />
      <line x1="0.4961503078" y1="1.9749136017" x2="0.7682693465" y2="1.741471736" />
      <line x1="0.2143742678" y1="2.1699160205" x2="0.4961503078" y2="1.9749136017" />
      <line x1="-0.0715743236" y1="2.3226834922" x2="0.2143742678" y2="2.1699160205" />
      <line x1="-0.3561298021" y1="2.4302425717" x2="-0.0715743236" y2="2.3226834922" />
      <line x1="-0.6337536191" y1="2.490499744" x2="-0.3561298021" y2="2.4302425717" />
      <line x1="-0.8990421428" y1="2.5022821716" x2="-0.6337536191" y2="2.490499744" />
      <line x1="-1.1468318338" y1="2.4653605231" x2="-0.8990421428" y2="2.5022821716" />
      <line x1="-1.3722997477" y1="2.3804534362" x2="-1.1468318338" y2="2.4653605231" />
      <line x1="-1.4502225043" y1="2.3365262003" x2="-1.3722997477" y2="2.3804534362" />
      <line x1="-1.571057408" y1="2.249213531" x2="-1.4502225043" y2="2.3365262003" />
      <line x1="-1.7392362229" y1="2.0741952429" x2="-1.571057408" y2="2.249213531" />
      <line x1="-1.8735627831" y1="1.8588051037" x2="-1.7392362229" y2="2.0741952429" />
      <line x1="-1.9714225748" y1="1.6072354375" x2="-1.8735627831" y2="1.8588051037" />
      <line x1="-2.0309108686" y1="1.3243827617" x2="-1.9714225748" y2="1.6072354375" />
      <line x1="-2.0508697924" y1="1.0157524819" x2="-2.0309108686" y2="1.3243827617" />
      <line x1="-0.7253592223" y1="2.7864138665" x2="-1.4502225043" y2="2.3365262003" />
      <line x1="-0.7253592223" y1="2.7864138665" x2="0.4817649475" y2="3.5356175978" />
      <line x1="1.6921440064" y1="-2.186377195" x2="3.3821173415" y2="-1.1374922832" />
      <line x1="1.6921440064" y1="-2.186377195" x2="1.4501298896" y2="-2.3365836807" />
      <line x1="15.531028882" y1="11.4047835594" x2="17.5961066604" y2="12.6864777013" />
      <line x1="15.531028882" y1="11.4047835594" x2="2.3531425004" y2="3.2259052848" />
      <line x1="8.8994751786" y1="3.758051592" x2="19.1781469769" y2="10.1375272552" />
      <line x1="8.8994751786" y1="3.758051592" x2="3.9383322751" y2="0.6789095554" />
      <line x1="18.676592971" y1="12.4857663452" x2="18.7070066932" y2="12.4663372404" />
      <line x1="18.5610906659" y1="12.559563472" x2="18.535362578" y2="12.5759996148" />
      <line x1="19.4761846973" y1="11.2099156078" x2="19.4841837127" y2="11.1360472315" />
      <line x1="19.4761846973" y1="11.2099156078" x2="19.4742813446" y2="11.2273445814" />
      <line x1="19.4911587896" y1="11.0723932658" x2="19.4958414572" y2="11.0295419743" />
      <line x1="19.4911587896" y1="11.0723932658" x2="19.4841837127" y2="11.1360472315" />
      <line x1="18.6267419421" y1="12.5175655587" x2="18.5610906659" y2="12.559563472" />
      <line x1="18.6267419421" y1="12.5175655587" x2="18.676592971" y2="12.4857663452" />
    </g>
  </g>
</svg>