<?xml version='1.0' encoding='utf-8'?>
<svg width="291.3728785067mm" height="512.9999999998mm" viewBox="6.5154176931 -48.4564675018 35.8056953326 63.0406021307" version="1.1" xmlns="http://www.w3.org/2000/svg">
  <g transform="scale(1,-1)" stroke-linecap="round">
    <g fill="none" stroke="rgb(64,192,64)" stroke-width="0.12288616399751663" id="Visible">
      <line x1="40.7545730884" y1="-11.2139507141" x2="40.6329215799" y2="-11.315623967" />
      <line x1="40.949591886" y1="-10.953504119" x2="40.7545730884" y2="-11.2139507141" />
      <line x1="41.0706571909" y1="-10.6294531012" x2="40.949591886" y2="-10.953504119" />
      <line x1="41.1116982828" y1="-10.2580469065" x2="41.0706571909" y2="-10.6294531012" />
      <line x1="12.1012856529" y1="48.3950244198" x2="12.4655354208" y2="48.3109918139" />
      <line x1="11.7553008897" y1="48.3879111896" x2="12.1012856529" y2="48.3950244198" />
      <line x1="11.4449302514" y1="48.2900088111" x2="11.7553008897" y2="48.3879111896" />
      <line x1="11.3073885263" y1="48.2078997715" x2="11.4449302514" y2="48.2900088111" />
      <line x1="41.0706571919" y1="36.9504462739" x2="41.1116982825" y2="36.5503088105" />
      <line x1="40.949591888" y1="37.3592504703" x2="41.0706571919" y2="36.9504462739" />
      <line x1="40.7545730912" y1="37.7562222493" x2="40.949591888" y2="37.3592504703" />
      <line x1="40.4953798585" y1="38.1214557882" x2="40.7545730912" y2="37.7562222493" />
      <line x1="40.1850092207" y1="38.4366367523" x2="40.4953798585" y2="38.1214557882" />
      <line x1="39.8390244579" y1="38.6859606519" x2="40.1850092207" y2="38.4366367523" />
      <line x1="39.4747746687" y1="38.8569253527" x2="39.8390244579" y2="38.6859606519" />
      <line x1="12.4655354208" y1="48.3109918139" x2="39.4747746687" y2="38.8569253527" />
      <line x1="35.2230236191" y1="35.836982421" x2="8.2137843711" y2="45.2910488822" />
      <line x1="35.58727339" y1="35.6660177324" x2="35.2230236191" y2="35.836982421" />
      <line x1="35.9332581566" y1="35.4166938348" x2="35.58727339" y2="35.6660177324" />
      <line x1="36.2436287984" y1="35.1015128711" x2="35.9332581566" y2="35.4166938348" />
      <line x1="36.5028220351" y1="34.7362793312" x2="36.2436287984" y2="35.1015128711" />
      <line x1="36.6978408352" y1="34.3393075501" x2="36.5028220351" y2="34.7362793312" />
      <line x1="36.8189061418" y1="33.9305033509" x2="36.6978408352" y2="34.3393075501" />
      <line x1="36.8599472325" y1="33.5303658779" x2="36.8189061418" y2="33.9305033509" />
      <line x1="36.8599472345" y1="14.4602950239" x2="36.4420404099" y2="14.4238109639" />
      <line x1="38.9858227588" y1="15.9702664894" x2="42.2596699436" y2="14.8243190384" />
      <line x1="42.2596699436" y1="14.8243190384" x2="39.9614261336" y2="13.1919174541" />
      <line x1="42.2596699436" y1="6.1561050113" x2="42.2596699436" y2="14.8243190384" />
      <line x1="39.9614261336" y1="4.523703427" x2="42.2596699436" y2="6.1561050113" />
      <line x1="36.8189061468" y1="-13.6493960131" x2="36.859947233" y2="-13.2779898391" />
      <line x1="36.697840845" y1="-13.973447036" x2="36.8189061468" y2="-13.6493960131" />
      <line x1="36.5028220491" y1="-14.233893636" x2="36.697840845" y2="-13.973447036" />
      <line x1="36.3811705314" y1="-14.3355668979" x2="36.5028220491" y2="-14.233893636" />
      <line x1="36.2436288159" y1="-14.4176759328" x2="36.3811705314" y2="-14.3355668979" />
      <line x1="35.9332581768" y1="-14.5155783146" x2="36.2436288159" y2="-14.4176759328" />
      <line x1="35.5872734118" y1="-14.522691547" x2="35.9332581768" y2="-14.5155783146" />
      <line x1="35.2230236361" y1="-14.4386589402" x2="35.5872734118" y2="-14.522691547" />
      <line x1="8.213784389" y1="-4.9845924791" x2="35.2230236361" y2="-14.4386589402" />
      <line x1="7.8495346193" y1="-4.8136277897" x2="8.213784389" y2="-4.9845924791" />
      <line x1="7.5035498526" y1="-4.5643038922" x2="7.8495346193" y2="-4.8136277897" />
      <line x1="7.1931792108" y1="-4.2491229284" x2="7.5035498526" y2="-4.5643038922" />
      <line x1="6.9339859742" y1="-3.8838893885" x2="7.1931792108" y2="-4.2491229284" />
      <line x1="6.738967174" y1="-3.4869176074" x2="6.9339859742" y2="-3.8838893885" />
      <line x1="6.6179018675" y1="-3.0781134082" x2="6.738967174" y2="-3.4869176074" />
      <line x1="6.5768607751" y1="-2.6779759363" x2="6.6179018675" y2="-3.0781134082" />
      <line x1="6.5768607751" y1="44.130379781" x2="6.5768607751" y2="-2.6779759363" />
      <line x1="6.6179018625" y1="44.5017859558" x2="6.5768607751" y2="44.130379781" />
      <line x1="6.7389671642" y1="44.8258369787" x2="6.6179018625" y2="44.5017859558" />
      <line x1="6.9339859602" y1="45.0862835787" x2="6.7389671642" y2="44.8258369787" />
      <line x1="7.0556374778" y1="45.1879568406" x2="6.9339859602" y2="45.0862835787" />
      <line x1="7.1931791933" y1="45.2700658755" x2="7.0556374778" y2="45.1879568406" />
      <line x1="7.5035498324" y1="45.3679682573" x2="7.1931791933" y2="45.2700658755" />
      <line x1="7.8495345974" y1="45.3750814896" x2="7.5035498324" y2="45.3679682573" />
      <line x1="8.2137843711" y1="45.2910488822" x2="7.8495345974" y2="45.3750814896" />
      <line x1="33.7296625393" y1="4.6704218144" x2="33.7749541084" y2="5.1722219168" />
      <line x1="33.5953301821" y1="4.2174168037" x2="33.7296625393" y2="4.6704218144" />
      <line x1="33.376531564" y1="3.8286334271" x2="33.5953301821" y2="4.2174168037" />
      <line x1="33.0807176096" y1="3.5173112363" x2="33.376531564" y2="3.8286334271" />
      <line x1="32.9967601435" y1="3.4535301093" x2="33.0807176096" y2="3.5173112363" />
      <line x1="32.7179619083" y1="3.294051935" x2="32.9967601435" y2="3.4535301093" />
      <line x1="32.3006176705" y1="3.1664583509" x2="32.7179619083" y2="3.294051935" />
      <line x1="31.8428970536" y1="3.1388755306" x2="32.3006176705" y2="3.1664583509" />
      <line x1="31.3603871842" y1="3.2122427739" x2="31.8428970536" y2="3.1388755306" />
      <line x1="30.8695193573" y1="3.3840616474" x2="31.3603871842" y2="3.2122427739" />
      <line x1="30.3870094879" y1="3.6484810652" x2="30.8695193573" y2="3.3840616474" />
      <line x1="29.929288871" y1="3.9964965415" x2="30.3870094879" y2="3.6484810652" />
      <line x1="29.5119446332" y1="4.4162568264" x2="29.929288871" y2="3.9964965415" />
      <line x1="29.1491889319" y1="4.8934674869" x2="29.5119446332" y2="4.4162568264" />
      <line x1="28.8533749775" y1="5.4118776863" x2="29.1491889319" y2="4.8934674869" />
      <line x1="28.6345763594" y1="5.9538335871" x2="28.8533749775" y2="5.4118776863" />
      <line x1="28.5002440022" y1="6.5008795311" x2="28.6345763594" y2="5.9538335871" />
      <line x1="28.4549524331" y1="7.0343865247" x2="28.5002440022" y2="6.5008795311" />
      <line x1="28.5002440022" y1="7.5361866272" x2="28.4549524331" y2="7.0343865247" />
      <line x1="28.6345763594" y1="7.9891916379" x2="28.5002440022" y2="7.5361866272" />
      <line x1="28.8533749775" y1="8.3779750144" x2="28.6345763594" y2="7.9891916379" />
      <line x1="29.1491889319" y1="8.6892972052" x2="28.8533749775" y2="8.3779750144" />
      <line x1="29.233146398" y1="8.7530783323" x2="29.1491889319" y2="8.6892972052" />
      <line x1="29.5119446332" y1="8.9125565066" x2="29.233146398" y2="8.7530783323" />
      <line x1="29.929288871" y1="9.0401500906" x2="29.5119446332" y2="8.9125565066" />
      <line x1="30.3870094879" y1="9.0677329109" x2="29.929288871" y2="9.0401500906" />
      <line x1="30.8695193573" y1="8.9943656676" x2="30.3870094879" y2="9.0677329109" />
      <line x1="31.3603871842" y1="8.8225467942" x2="30.8695193573" y2="8.9943656676" />
      <line x1="31.8428970536" y1="8.5581273763" x2="31.3603871842" y2="8.8225467942" />
      <line x1="32.3006176705" y1="8.2101119001" x2="31.8428970536" y2="8.5581273763" />
      <line x1="32.7179619083" y1="7.7903516152" x2="32.3006176705" y2="8.2101119001" />
      <line x1="33.0807176096" y1="7.3131409547" x2="32.7179619083" y2="7.7903516152" />
      <line x1="33.376531564" y1="6.7947307552" x2="33.0807176096" y2="7.3131409547" />
      <line x1="33.5953301821" y1="6.2527748544" x2="33.376531564" y2="6.7947307552" />
      <line x1="33.7296625393" y1="5.7057289104" x2="33.5953301821" y2="6.2527748544" />
      <line x1="33.7749541084" y1="5.1722219168" x2="33.7296625393" y2="5.7057289104" />
      <line x1="24.1607449874" y1="2.1687935095" x2="24.2060365565" y2="2.670593612" />
      <line x1="24.0264126302" y1="1.7157884988" x2="24.1607449874" y2="2.1687935095" />
      <line x1="23.8076140121" y1="1.3270051223" x2="24.0264126302" y2="1.7157884988" />
      <line x1="23.5118000577" y1="1.0156829314" x2="23.8076140121" y2="1.3270051223" />
      <line x1="23.4278425916" y1="0.9519018044" x2="23.5118000577" y2="1.0156829314" />
      <line x1="23.1490443564" y1="0.7924236301" x2="23.4278425916" y2="0.9519018044" />
      <line x1="22.7317001186" y1="0.6648300461" x2="23.1490443564" y2="0.7924236301" />
      <line x1="22.2739795017" y1="0.6372472258" x2="22.7317001186" y2="0.6648300461" />
      <line x1="21.7914696323" y1="0.7106144691" x2="22.2739795017" y2="0.6372472258" />
      <line x1="21.3006018054" y1="0.8824333425" x2="21.7914696323" y2="0.7106144691" />
      <line x1="20.818091936" y1="1.1468527604" x2="21.3006018054" y2="0.8824333425" />
      <line x1="20.3603713191" y1="1.4948682366" x2="20.818091936" y2="1.1468527604" />
      <line x1="19.9430270813" y1="1.9146285215" x2="20.3603713191" y2="1.4948682366" />
      <line x1="19.58027138" y1="2.391839182" x2="19.9430270813" y2="1.9146285215" />
      <line x1="19.2844574256" y1="2.9102493815" x2="19.58027138" y2="2.391839182" />
      <line x1="19.0656588075" y1="3.4522052823" x2="19.2844574256" y2="2.9102493815" />
      <line x1="18.9313264503" y1="3.9992512263" x2="19.0656588075" y2="3.4522052823" />
      <line x1="18.8860348812" y1="4.5327582199" x2="18.9313264503" y2="3.9992512263" />
      <line x1="18.9313264503" y1="5.0345583223" x2="18.8860348812" y2="4.5327582199" />
      <line x1="19.0656588075" y1="5.487563333" x2="18.9313264503" y2="5.0345583223" />
      <line x1="19.2844574256" y1="5.8763467095" x2="19.0656588075" y2="5.487563333" />
      <line x1="19.58027138" y1="6.1876689004" x2="19.2844574256" y2="5.8763467095" />
      <line x1="19.6642288461" y1="6.2514500274" x2="19.58027138" y2="6.1876689004" />
      <line x1="19.9430270813" y1="6.4109282017" x2="19.6642288461" y2="6.2514500274" />
      <line x1="20.3603713191" y1="6.5385217857" x2="19.9430270813" y2="6.4109282017" />
      <line x1="20.818091936" y1="6.566104606" x2="20.3603713191" y2="6.5385217857" />
      <line x1="21.3006018054" y1="6.4927373628" x2="20.818091936" y2="6.566104606" />
      <line x1="21.7914696323" y1="6.3209184893" x2="21.3006018054" y2="6.4927373628" />
      <line x1="22.2739795017" y1="6.0564990714" x2="21.7914696323" y2="6.3209184893" />
      <line x1="22.7317001186" y1="5.7084835952" x2="22.2739795017" y2="6.0564990714" />
      <line x1="23.1490443564" y1="5.2887233103" x2="22.7317001186" y2="5.7084835952" />
      <line x1="23.5118000577" y1="4.8115126498" x2="23.1490443564" y2="5.2887233103" />
      <line x1="23.8076140121" y1="4.2931024504" x2="23.5118000577" y2="4.8115126498" />
      <line x1="24.0264126302" y1="3.7511465495" x2="23.8076140121" y2="4.2931024504" />
      <line x1="24.1607449874" y1="3.2041006056" x2="24.0264126302" y2="3.7511465495" />
      <line x1="24.2060365565" y1="2.670593612" x2="24.1607449874" y2="3.2041006056" />
      <line x1="14.5918274356" y1="11.3692541412" x2="14.6371190047" y2="11.8710542437" />
      <line x1="14.4574950783" y1="10.9162491306" x2="14.5918274356" y2="11.3692541412" />
      <line x1="14.2386964602" y1="10.527465754" x2="14.4574950783" y2="10.9162491306" />
      <line x1="13.9428825058" y1="10.2161435632" x2="14.2386964602" y2="10.527465754" />
      <line x1="13.8589250398" y1="10.1523624362" x2="13.9428825058" y2="10.2161435632" />
      <line x1="13.5801268046" y1="9.9928842619" x2="13.8589250398" y2="10.1523624362" />
      <line x1="13.1627825667" y1="9.8652906778" x2="13.5801268046" y2="9.9928842619" />
      <line x1="12.7050619498" y1="9.8377078575" x2="13.1627825667" y2="9.8652906778" />
      <line x1="12.2225520804" y1="9.9110751008" x2="12.7050619498" y2="9.8377078575" />
      <line x1="11.7316842535" y1="10.0828939742" x2="12.2225520804" y2="9.9110751008" />
      <line x1="11.2491743841" y1="10.3473133921" x2="11.7316842535" y2="10.0828939742" />
      <line x1="10.7914537672" y1="10.6953288683" x2="11.2491743841" y2="10.3473133921" />
      <line x1="10.3741095294" y1="11.1150891532" x2="10.7914537672" y2="10.6953288683" />
      <line x1="10.0113538281" y1="11.5922998138" x2="10.3741095294" y2="11.1150891532" />
      <line x1="9.7155398737" y1="12.1107100132" x2="10.0113538281" y2="11.5922998138" />
      <line x1="9.4967412556" y1="12.652665914" x2="9.7155398737" y2="12.1107100132" />
      <line x1="9.3624088984" y1="13.199711858" x2="9.4967412556" y2="12.652665914" />
      <line x1="9.3171173293" y1="13.7332188516" x2="9.3624088984" y2="13.199711858" />
      <line x1="9.3624088984" y1="14.2350189541" x2="9.3171173293" y2="13.7332188516" />
      <line x1="9.4967412556" y1="14.6880239647" x2="9.3624088984" y2="14.2350189541" />
      <line x1="9.7155398737" y1="15.0768073413" x2="9.4967412556" y2="14.6880239647" />
      <line x1="10.0113538281" y1="15.3881295321" x2="9.7155398737" y2="15.0768073413" />
      <line x1="10.0953112942" y1="15.4519106592" x2="10.0113538281" y2="15.3881295321" />
      <line x1="10.3741095294" y1="15.6113888334" x2="10.0953112942" y2="15.4519106592" />
      <line x1="10.7914537672" y1="15.7389824175" x2="10.3741095294" y2="15.6113888334" />
      <line x1="11.2491743841" y1="15.7665652378" x2="10.7914537672" y2="15.7389824175" />
      <line x1="11.7316842535" y1="15.6931979945" x2="11.2491743841" y2="15.7665652378" />
      <line x1="12.2225520804" y1="15.5213791211" x2="11.7316842535" y2="15.6931979945" />
      <line x1="12.7050619498" y1="15.2569597032" x2="12.2225520804" y2="15.5213791211" />
      <line x1="13.1627825667" y1="14.908944227" x2="12.7050619498" y2="15.2569597032" />
      <line x1="13.5801268046" y1="14.4891839421" x2="13.1627825667" y2="14.908944227" />
      <line x1="13.9428825058" y1="14.0119732816" x2="13.5801268046" y2="14.4891839421" />
      <line x1="14.2386964602" y1="13.4935630821" x2="13.9428825058" y2="14.0119732816" />
      <line x1="14.4574950783" y1="12.9516071813" x2="14.2386964602" y2="13.4935630821" />
      <line x1="14.5918274356" y1="12.4045612373" x2="14.4574950783" y2="12.9516071813" />
      <line x1="14.6371190047" y1="11.8710542437" x2="14.5918274356" y2="12.4045612373" />
      <line x1="33.7296625393" y1="16.372510751" x2="33.7749541084" y2="16.8743108534" />
      <line x1="33.5953301821" y1="15.9195057403" x2="33.7296625393" y2="16.372510751" />
      <line x1="33.376531564" y1="15.5307223637" x2="33.5953301821" y2="15.9195057403" />
      <line x1="33.0807176096" y1="15.2194001729" x2="33.376531564" y2="15.5307223637" />
      <line x1="32.9967601435" y1="15.1556190459" x2="33.0807176096" y2="15.2194001729" />
      <line x1="32.7179619083" y1="14.9961408716" x2="32.9967601435" y2="15.1556190459" />
      <line x1="32.3006176705" y1="14.8685472876" x2="32.7179619083" y2="14.9961408716" />
      <line x1="31.8428970536" y1="14.8409644672" x2="32.3006176705" y2="14.8685472876" />
      <line x1="31.3603871842" y1="14.9143317105" x2="31.8428970536" y2="14.8409644672" />
      <line x1="30.8695193573" y1="15.086150584" x2="31.3603871842" y2="14.9143317105" />
      <line x1="30.3870094879" y1="15.3505700019" x2="30.8695193573" y2="15.086150584" />
      <line x1="29.929288871" y1="15.6985854781" x2="30.3870094879" y2="15.3505700019" />
      <line x1="29.5119446332" y1="16.118345763" x2="29.929288871" y2="15.6985854781" />
      <line x1="29.1491889319" y1="16.5955564235" x2="29.5119446332" y2="16.118345763" />
      <line x1="28.8533749775" y1="17.1139666229" x2="29.1491889319" y2="16.5955564235" />
      <line x1="28.6345763594" y1="17.6559225237" x2="28.8533749775" y2="17.1139666229" />
      <line x1="28.5002440022" y1="18.2029684677" x2="28.6345763594" y2="17.6559225237" />
      <line x1="28.4549524331" y1="18.7364754613" x2="28.5002440022" y2="18.2029684677" />
      <line x1="28.5002440022" y1="19.2382755638" x2="28.4549524331" y2="18.7364754613" />
      <line x1="28.6345763594" y1="19.6912805745" x2="28.5002440022" y2="19.2382755638" />
      <line x1="28.8533749775" y1="20.080063951" x2="28.6345763594" y2="19.6912805745" />
      <line x1="29.1491889319" y1="20.3913861419" x2="28.8533749775" y2="20.080063951" />
      <line x1="29.233146398" y1="20.4551672689" x2="29.1491889319" y2="20.3913861419" />
      <line x1="29.5119446332" y1="20.6146454432" x2="29.233146398" y2="20.4551672689" />
      <line x1="29.929288871" y1="20.7422390272" x2="29.5119446332" y2="20.6146454432" />
      <line x1="30.3870094879" y1="20.7698218475" x2="29.929288871" y2="20.7422390272" />
      <line x1="30.8695193573" y1="20.6964546042" x2="30.3870094879" y2="20.7698218475" />
      <line x1="31.3603871842" y1="20.5246357308" x2="30.8695193573" y2="20.6964546042" />
      <line x1="31.8428970536" y1="20.2602163129" x2="31.3603871842" y2="20.5246357308" />
      <line x1="32.3006176705" y1="19.9122008367" x2="31.8428970536" y2="20.2602163129" />
      <line x1="32.7179619083" y1="19.4924405518" x2="32.3006176705" y2="19.9122008367" />
      <line x1="33.0807176096" y1="19.0152298913" x2="32.7179619083" y2="19.4924405518" />
      <line x1="33.376531564" y1="18.4968196918" x2="33.0807176096" y2="19.0152298913" />
      <line x1="33.5953301821" y1="17.954863791" x2="33.376531564" y2="18.4968196918" />
      <line x1="33.7296625393" y1="17.407817847" x2="33.5953301821" y2="17.954863791" />
      <line x1="33.7749541084" y1="16.8743108534" x2="33.7296625393" y2="17.407817847" />
      <line x1="24.1607449874" y1="25.5729713827" x2="24.2060365565" y2="26.0747714852" />
      <line x1="24.0264126302" y1="25.119966372" x2="24.1607449874" y2="25.5729713827" />
      <line x1="23.8076140121" y1="24.7311829955" x2="24.0264126302" y2="25.119966372" />
      <line x1="23.5118000577" y1="24.4198608047" x2="23.8076140121" y2="24.7311829955" />
      <line x1="23.4278425916" y1="24.3560796776" x2="23.5118000577" y2="24.4198608047" />
      <line x1="23.1490443564" y1="24.1966015033" x2="23.4278425916" y2="24.3560796776" />
      <line x1="22.7317001186" y1="24.0690079193" x2="23.1490443564" y2="24.1966015033" />
      <line x1="22.2739795017" y1="24.041425099" x2="22.7317001186" y2="24.0690079193" />
      <line x1="21.7914696323" y1="24.1147923423" x2="22.2739795017" y2="24.041425099" />
      <line x1="21.3006018054" y1="24.2866112157" x2="21.7914696323" y2="24.1147923423" />
      <line x1="20.818091936" y1="24.5510306336" x2="21.3006018054" y2="24.2866112157" />
      <line x1="20.3603713191" y1="24.8990461098" x2="20.818091936" y2="24.5510306336" />
      <line x1="19.9430270813" y1="25.3188063947" x2="20.3603713191" y2="24.8990461098" />
      <line x1="19.58027138" y1="25.7960170552" x2="19.9430270813" y2="25.3188063947" />
      <line x1="19.2844574256" y1="26.3144272547" x2="19.58027138" y2="25.7960170552" />
      <line x1="19.0656588075" y1="26.8563831555" x2="19.2844574256" y2="26.3144272547" />
      <line x1="18.9313264503" y1="27.4034290995" x2="19.0656588075" y2="26.8563831555" />
      <line x1="18.8860348812" y1="27.9369360931" x2="18.9313264503" y2="27.4034290995" />
      <line x1="18.9313264503" y1="28.4387361955" x2="18.8860348812" y2="27.9369360931" />
      <line x1="19.0656588075" y1="28.8917412062" x2="18.9313264503" y2="28.4387361955" />
      <line x1="19.2844574256" y1="29.2805245828" x2="19.0656588075" y2="28.8917412062" />
      <line x1="19.58027138" y1="29.5918467736" x2="19.2844574256" y2="29.2805245828" />
      <line x1="19.6642288461" y1="29.6556279006" x2="19.58027138" y2="29.5918467736" />
      <line x1="19.9430270813" y1="29.8151060749" x2="19.6642288461" y2="29.6556279006" />
      <line x1="20.3603713191" y1="29.942699659" x2="19.9430270813" y2="29.8151060749" />
      <line x1="20.818091936" y1="29.9702824793" x2="20.3603713191" y2="29.942699659" />
      <line x1="21.3006018054" y1="29.896915236" x2="20.818091936" y2="29.9702824793" />
      <line x1="21.7914696323" y1="29.7250963625" x2="21.3006018054" y2="29.896915236" />
      <line x1="22.2739795017" y1="29.4606769447" x2="21.7914696323" y2="29.7250963625" />
      <line x1="22.7317001186" y1="29.1126614684" x2="22.2739795017" y2="29.4606769447" />
      <line x1="23.1490443564" y1="28.6929011835" x2="22.7317001186" y2="29.1126614684" />
      <line x1="23.5118000577" y1="28.215690523" x2="23.1490443564" y2="28.6929011835" />
      <line x1="23.8076140121" y1="27.6972803236" x2="23.5118000577" y2="28.215690523" />
      <line x1="24.0264126302" y1="27.1553244228" x2="23.8076140121" y2="27.6972803236" />
      <line x1="24.1607449874" y1="26.6082784788" x2="24.0264126302" y2="27.1553244228" />
      <line x1="24.2060365565" y1="26.0747714852" x2="24.1607449874" y2="26.6082784788" />
      <line x1="35.0506553311" y1="35.4545058822" x2="8.0414160854" y2="44.9085723425" />
      <line x1="35.3602676373" y1="35.3091858979" x2="35.0506553311" y2="35.4545058822" />
      <line x1="35.65435469" y1="35.0972605853" x2="35.3602676373" y2="35.3091858979" />
      <line x1="35.9181697367" y1="34.829356766" x2="35.65435469" y2="35.0972605853" />
      <line x1="36.1384839889" y1="34.5189082566" x2="35.9181697367" y2="34.829356766" />
      <line x1="36.3042499698" y1="34.1814822419" x2="36.1384839889" y2="34.5189082566" />
      <line x1="36.4071554809" y1="33.8339986717" x2="36.3042499698" y2="34.1814822419" />
      <line x1="36.4420404078" y1="33.4938818171" x2="36.4071554809" y2="33.8339986717" />
      <line x1="36.4420404099" y1="14.4238109639" x2="36.4420404078" y2="33.4938818171" />
      <line x1="39.9614261336" y1="13.1919174541" x2="36.4420404099" y2="14.4238109639" />
      <line x1="39.9614261336" y1="13.1919174541" x2="39.9614261336" y2="4.523703427" />
      <line x1="36.4420404099" y1="5.7555969368" x2="39.9614261336" y2="4.523703427" />
      <line x1="36.4420404085" y1="-13.3144738968" x2="36.4420404099" y2="5.7555969368" />
      <line x1="36.4071554864" y1="-13.630169146" x2="36.4420404085" y2="-13.3144738968" />
      <line x1="36.3042499805" y1="-13.9056125168" x2="36.4071554864" y2="-13.630169146" />
      <line x1="36.1384840043" y1="-14.126992128" x2="36.3042499805" y2="-13.9056125168" />
      <line x1="35.918169756" y1="-14.2832070814" x2="36.1384840043" y2="-14.126992128" />
      <line x1="35.6543547123" y1="-14.3664241066" x2="35.918169756" y2="-14.2832070814" />
      <line x1="35.3602676614" y1="-14.3724703544" x2="35.6543547123" y2="-14.3664241066" />
      <line x1="35.0506553495" y1="-14.301042638" x2="35.3602676614" y2="-14.3724703544" />
      <line x1="8.0414161055" y1="-4.846976178" x2="35.0506553495" y2="-14.301042638" />
      <line x1="7.7318038004" y1="-4.7016561929" x2="8.0414161055" y2="-4.846976178" />
      <line x1="7.4377167477" y1="-4.4897308802" x2="7.7318038004" y2="-4.7016561929" />
      <line x1="7.173901701" y1="-4.221827061" x2="7.4377167477" y2="-4.4897308802" />
      <line x1="6.9535874489" y1="-3.9113785515" x2="7.173901701" y2="-4.221827061" />
      <line x1="6.7878214679" y1="-3.5739525369" x2="6.9535874489" y2="-3.9113785515" />
      <line x1="6.6849159568" y1="-3.2264689667" x2="6.7878214679" y2="-3.5739525369" />
      <line x1="6.6500310282" y1="-2.8863521133" x2="6.6849159568" y2="-3.2264689667" />
      <line x1="6.650031028" y1="43.922003601" x2="6.6500310282" y2="-2.8863521133" />
      <line x1="6.6849159513" y1="44.237698851" x2="6.650031028" y2="43.922003601" />
      <line x1="6.7878214572" y1="44.5131422218" x2="6.6849159513" y2="44.237698851" />
      <line x1="6.9535874334" y1="44.7345218331" x2="6.7878214572" y2="44.5131422218" />
      <line x1="7.1739016817" y1="44.8907367864" x2="6.9535874334" y2="44.7345218331" />
      <line x1="7.4377167254" y1="44.9739538116" x2="7.1739016817" y2="44.8907367864" />
      <line x1="7.7318037763" y1="44.9800000595" x2="7.4377167254" y2="44.9739538116" />
      <line x1="8.0414160854" y1="44.9085723425" x2="7.7318037763" y2="44.9800000595" />
      <line x1="14.5918274356" y1="23.0713430779" x2="14.6371190047" y2="23.5731431803" />
      <line x1="14.4574950783" y1="22.6183380672" x2="14.5918274356" y2="23.0713430779" />
      <line x1="14.2386964602" y1="22.2295546906" x2="14.4574950783" y2="22.6183380672" />
      <line x1="13.9428825058" y1="21.9182324998" x2="14.2386964602" y2="22.2295546906" />
      <line x1="13.8589250398" y1="21.8544513728" x2="13.9428825058" y2="21.9182324998" />
      <line x1="13.5801268046" y1="21.6949731985" x2="13.8589250398" y2="21.8544513728" />
      <line x1="13.1627825667" y1="21.5673796144" x2="13.5801268046" y2="21.6949731985" />
      <line x1="12.7050619498" y1="21.5397967941" x2="13.1627825667" y2="21.5673796144" />
      <line x1="12.2225520804" y1="21.6131640374" x2="12.7050619498" y2="21.5397967941" />
      <line x1="11.7316842535" y1="21.7849829109" x2="12.2225520804" y2="21.6131640374" />
      <line x1="11.2491743841" y1="22.0494023287" x2="11.7316842535" y2="21.7849829109" />
      <line x1="10.7914537672" y1="22.397417805" x2="11.2491743841" y2="22.0494023287" />
      <line x1="10.3741095294" y1="22.8171780898" x2="10.7914537672" y2="22.397417805" />
      <line x1="10.0113538281" y1="23.2943887504" x2="10.3741095294" y2="22.8171780898" />
      <line x1="9.7155398737" y1="23.8127989498" x2="10.0113538281" y2="23.2943887504" />
      <line x1="9.4967412556" y1="24.3547548506" x2="9.7155398737" y2="23.8127989498" />
      <line x1="9.3624088984" y1="24.9018007946" x2="9.4967412556" y2="24.3547548506" />
      <line x1="9.3171173293" y1="25.4353077882" x2="9.3624088984" y2="24.9018007946" />
      <line x1="9.3624088984" y1="25.9371078907" x2="9.3171173293" y2="25.4353077882" />
      <line x1="9.4967412556" y1="26.3901129014" x2="9.3624088984" y2="25.9371078907" />
      <line x1="9.7155398737" y1="26.7788962779" x2="9.4967412556" y2="26.3901129014" />
      <line x1="10.0113538281" y1="27.0902184687" x2="9.7155398737" y2="26.7788962779" />
      <line x1="10.0953112942" y1="27.1539995958" x2="10.0113538281" y2="27.0902184687" />
      <line x1="10.3741095294" y1="27.3134777701" x2="10.0953112942" y2="27.1539995958" />
      <line x1="10.7914537672" y1="27.4410713541" x2="10.3741095294" y2="27.3134777701" />
      <line x1="11.2491743841" y1="27.4686541744" x2="10.7914537672" y2="27.4410713541" />
      <line x1="11.7316842535" y1="27.3952869311" x2="11.2491743841" y2="27.4686541744" />
      <line x1="12.2225520804" y1="27.2234680577" x2="11.7316842535" y2="27.3952869311" />
      <line x1="12.7050619498" y1="26.9590486398" x2="12.2225520804" y2="27.2234680577" />
      <line x1="13.1627825667" y1="26.6110331636" x2="12.7050619498" y2="26.9590486398" />
      <line x1="13.5801268046" y1="26.1912728787" x2="13.1627825667" y2="26.6110331636" />
      <line x1="13.9428825058" y1="25.7140622182" x2="13.5801268046" y2="26.1912728787" />
      <line x1="14.2386964602" y1="25.1956520187" x2="13.9428825058" y2="25.7140622182" />
      <line x1="14.4574950783" y1="24.6536961179" x2="14.2386964602" y2="25.1956520187" />
      <line x1="14.5918274356" y1="24.1066501739" x2="14.4574950783" y2="24.6536961179" />
      <line x1="14.6371190047" y1="23.5731431803" x2="14.5918274356" y2="24.1066501739" />
      <line x1="41.6456763511" y1="16.12235615" x2="41.7150256006" y2="15.0149613504" />
      <line x1="41.473021997" y1="17.4012903105" x2="41.6456763511" y2="16.12235615" />
      <line x1="41.2075624427" y1="18.6938492085" x2="41.473021997" y2="17.4012903105" />
      <line x1="41.1116982826" y1="19.0427805581" x2="41.2075624427" y2="18.6938492085" />
      <line x1="39.478538879" y1="-5.3926496122" x2="39.4994085004" y2="-5.1185213676" />
      <line x1="39.4171428816" y1="-5.6804931591" x2="39.478538879" y2="-5.3926496122" />
      <line x1="39.3187886203" y1="-5.9653235877" x2="39.4171428816" y2="-5.6804931591" />
      <line x1="39.1891920872" y1="-6.2305875888" x2="39.3187886203" y2="-5.9653235877" />
      <line x1="39.0358849618" y1="-6.460868983" x2="39.1891920872" y2="-6.2305875888" />
      <line x1="38.867776897" y1="-6.6427846524" x2="39.0358849618" y2="-6.460868983" />
      <line x1="38.6946377225" y1="-6.7657623198" x2="38.867776897" y2="-6.6427846524" />
      <line x1="38.5265296577" y1="-6.8226549701" x2="38.6946377225" y2="-6.7657623198" />
      <line x1="38.3681931908" y1="-6.8084431718" x2="38.5265296577" y2="-6.8226549701" />
      <line x1="38.2436259992" y1="-6.7289924197" x2="38.3681931908" y2="-6.8084431718" />
      <line x1="38.1474252395" y1="-6.5870578223" x2="38.2436259992" y2="-6.7289924197" />
      <line x1="39.0358849618" y1="-4.4346387553" x2="38.8773201965" y2="-4.488301676" />
      <line x1="39.1942214287" y1="-4.4488505536" x2="39.0358849618" y2="-4.4346387553" />
      <line x1="39.3187886203" y1="-4.5283013057" x2="39.1942214287" y2="-4.4488505536" />
      <line x1="39.4171428816" y1="-4.6734131794" x2="39.3187886203" y2="-4.5283013057" />
      <line x1="39.478538879" y1="-4.8740397626" x2="39.4171428816" y2="-4.6734131794" />
      <line x1="39.4994085004" y1="-5.1185213676" x2="39.478538879" y2="-4.8740397626" />
      <line x1="39.822620642" y1="-5.4170718777" x2="39.8476641876" y2="-5.0881179843" />
      <line x1="39.748945445" y1="-5.762484134" x2="39.822620642" y2="-5.4170718777" />
      <line x1="39.6309203314" y1="-6.1042806484" x2="39.748945445" y2="-5.762484134" />
      <line x1="39.4754044917" y1="-6.4225974498" x2="39.6309203314" y2="-6.1042806484" />
      <line x1="39.2914359413" y1="-6.6989351227" x2="39.4754044917" y2="-6.4225974498" />
      <line x1="39.0897062635" y1="-6.9172339261" x2="39.2914359413" y2="-6.6989351227" />
      <line x1="38.8819392541" y1="-7.0648071269" x2="39.0897062635" y2="-6.9172339261" />
      <line x1="38.6802095763" y1="-7.1330783072" x2="38.8819392541" y2="-7.0648071269" />
      <line x1="38.4962410258" y1="-7.1180797942" x2="38.6802095763" y2="-7.1330783072" />
      <line x1="38.3407251862" y1="-7.0206832468" x2="38.4962410258" y2="-7.1180797942" />
      <line x1="38.2227000725" y1="-6.8465489983" x2="38.3407251862" y2="-7.0206832468" />
      <line x1="38.1737440821" y1="-6.7124982924" x2="38.2227000725" y2="-6.8465489983" />
      <line x1="38.1490248756" y1="-6.6057970985" x2="38.1737440821" y2="-6.7124982924" />
      <line x1="38.12398133" y1="-6.3124191725" x2="38.1490248756" y2="-6.6057970985" />
      <line x1="38.1490248756" y1="-5.9834652791" x2="38.12398133" y2="-6.3124191725" />
      <line x1="38.2227000725" y1="-5.6380530228" x2="38.1490248756" y2="-5.9834652791" />
      <line x1="38.3407251862" y1="-5.2962565084" x2="38.2227000725" y2="-5.6380530228" />
      <line x1="38.4962410258" y1="-4.977939707" x2="38.3407251862" y2="-5.2962565084" />
      <line x1="38.6802095763" y1="-4.7016020341" x2="38.4962410258" y2="-4.977939707" />
      <line x1="38.8819392541" y1="-4.4833032307" x2="38.6802095763" y2="-4.7016020341" />
      <line x1="38.9820983255" y1="-4.402694014" x2="38.8819392541" y2="-4.4833032307" />
      <line x1="39.0897062635" y1="-4.3357300299" x2="38.9820983255" y2="-4.402694014" />
      <line x1="39.2914359413" y1="-4.2674588496" x2="39.0897062635" y2="-4.3357300299" />
      <line x1="39.4754044917" y1="-4.2824573626" x2="39.2914359413" y2="-4.2674588496" />
      <line x1="39.6309203314" y1="-4.37985391" x2="39.4754044917" y2="-4.2824573626" />
      <line x1="39.748945445" y1="-4.5539881584" x2="39.6309203314" y2="-4.37985391" />
      <line x1="39.822620642" y1="-4.7947400583" x2="39.748945445" y2="-4.5539881584" />
      <line x1="39.8476641876" y1="-5.0881179843" x2="39.822620642" y2="-4.7947400583" />
      <line x1="36.859947233" y1="-13.2779898391" x2="36.8599472345" y2="5.6093166637" />
      <line x1="36.8599472345" y1="14.4602950239" x2="38.9858227588" y2="15.9702664894" />
      <line x1="36.8599472345" y1="14.4602950239" x2="36.8599472325" y2="33.5303658779" />
      <line x1="41.1116982825" y1="36.5503088105" x2="41.1116982826" y2="15.226144513" />
      <line x1="41.1116982827" y1="5.3407212169" x2="41.1116982828" y2="-10.2580469065" />
      <line x1="39.822620642" y1="29.2557842307" x2="39.8476641876" y2="29.5847381242" />
      <line x1="39.748945445" y1="28.9103719744" x2="39.822620642" y2="29.2557842307" />
      <line x1="39.6309203314" y1="28.5685754601" x2="39.748945445" y2="28.9103719744" />
      <line x1="39.4754044917" y1="28.2502586587" x2="39.6309203314" y2="28.5685754601" />
      <line x1="39.2914359413" y1="27.9739209858" x2="39.4754044917" y2="28.2502586587" />
      <line x1="39.0897062635" y1="27.7556221824" x2="39.2914359413" y2="27.9739209858" />
      <line x1="38.8819392541" y1="27.6080489815" x2="39.0897062635" y2="27.7556221824" />
      <line x1="38.6802095763" y1="27.5397778012" x2="38.8819392541" y2="27.6080489815" />
      <line x1="38.4962410258" y1="27.5547763143" x2="38.6802095763" y2="27.5397778012" />
      <line x1="38.3407251862" y1="27.6521728617" x2="38.4962410258" y2="27.5547763143" />
      <line x1="38.2227000725" y1="27.8263071101" x2="38.3407251862" y2="27.6521728617" />
      <line x1="38.1737440821" y1="27.9603578161" x2="38.2227000725" y2="27.8263071101" />
      <line x1="38.1490248756" y1="28.06705901" x2="38.1737440821" y2="27.9603578161" />
      <line x1="38.12398133" y1="28.360436936" x2="38.1490248756" y2="28.06705901" />
      <line x1="38.1490248756" y1="28.6893908294" x2="38.12398133" y2="28.360436936" />
      <line x1="38.2227000725" y1="29.0348030857" x2="38.1490248756" y2="28.6893908294" />
      <line x1="38.3407251862" y1="29.3765996001" x2="38.2227000725" y2="29.0348030857" />
      <line x1="38.4962410258" y1="29.6949164014" x2="38.3407251862" y2="29.3765996001" />
      <line x1="38.6802095763" y1="29.9712540744" x2="38.4962410258" y2="29.6949164014" />
      <line x1="38.8819392541" y1="30.1895528777" x2="38.6802095763" y2="29.9712540744" />
      <line x1="38.9820983255" y1="30.2701620945" x2="38.8819392541" y2="30.1895528777" />
      <line x1="39.0897062635" y1="30.3371260786" x2="38.9820983255" y2="30.2701620945" />
      <line x1="39.2914359413" y1="30.4053972589" x2="39.0897062635" y2="30.3371260786" />
      <line x1="39.4754044917" y1="30.3903987458" x2="39.2914359413" y2="30.4053972589" />
      <line x1="39.6309203314" y1="30.2930021984" x2="39.4754044917" y2="30.3903987458" />
      <line x1="39.748945445" y1="30.11886795" x2="39.6309203314" y2="30.2930021984" />
      <line x1="39.822620642" y1="29.8781160502" x2="39.748945445" y2="30.11886795" />
      <line x1="39.8476641876" y1="29.5847381242" x2="39.822620642" y2="29.8781160502" />
      <line x1="39.478538879" y1="29.2802064963" x2="39.4994085004" y2="29.5543347408" />
      <line x1="39.4171428816" y1="28.9923629494" x2="39.478538879" y2="29.2802064963" />
      <line x1="39.3187886203" y1="28.7075325208" x2="39.4171428816" y2="28.9923629494" />
      <line x1="39.1891920872" y1="28.4422685196" x2="39.3187886203" y2="28.7075325208" />
      <line x1="39.0358849618" y1="28.2119871255" x2="39.1891920872" y2="28.4422685196" />
      <line x1="38.867776897" y1="28.030071456" x2="39.0358849618" y2="28.2119871255" />
      <line x1="38.6946377225" y1="27.9070937887" x2="38.867776897" y2="28.030071456" />
      <line x1="38.5265296577" y1="27.8502011384" x2="38.6946377225" y2="27.9070937887" />
      <line x1="38.3681931908" y1="27.8644129366" x2="38.5265296577" y2="27.8502011384" />
      <line x1="38.2436259992" y1="27.9438636888" x2="38.3681931908" y2="27.8644129366" />
      <line x1="38.1474252395" y1="28.0857982862" x2="38.2436259992" y2="27.9438636888" />
      <line x1="39.0358849618" y1="30.2382173531" x2="38.8773201965" y2="30.1845544325" />
      <line x1="39.1942214287" y1="30.2240055549" x2="39.0358849618" y2="30.2382173531" />
      <line x1="39.3187886203" y1="30.1445548027" x2="39.1942214287" y2="30.2240055549" />
      <line x1="39.4171428816" y1="29.999442929" x2="39.3187886203" y2="30.1445548027" />
      <line x1="39.478538879" y1="29.7988163458" x2="39.4171428816" y2="29.999442929" />
      <line x1="39.4994085004" y1="29.5543347408" x2="39.478538879" y2="29.7988163458" />
      <line x1="35.2230236191" y1="35.836982421" x2="39.4747746687" y2="38.8569253527" />
      <line x1="8.2137843711" y1="45.2910488822" x2="12.4655354208" y2="48.3109918139" />
      <line x1="35.0506553311" y1="35.4545058822" x2="35.2230236191" y2="35.836982421" />
      <line x1="36.4420404078" y1="33.4938818171" x2="36.8599472325" y2="33.5303658779" />
      <line x1="36.4420404085" y1="-13.3144738968" x2="36.859947233" y2="-13.2779898391" />
      <line x1="35.0506553495" y1="-14.301042638" x2="35.2230236361" y2="-14.4386589402" />
      <line x1="8.0414161055" y1="-4.846976178" x2="8.213784389" y2="-4.9845924791" />
      <line x1="6.6500310282" y1="-2.8863521133" x2="6.5768607751" y2="-2.6779759363" />
      <line x1="6.650031028" y1="43.922003601" x2="6.5768607751" y2="44.130379781" />
      <line x1="8.0414160854" y1="44.9085723425" x2="8.2137843711" y2="45.2910488822" />
      <line x1="36.859947233" y1="-13.2779898391" x2="41.1116982828" y2="-10.2580469065" />
      <line x1="36.8599472325" y1="33.5303658779" x2="41.1116982825" y2="36.5503088105" />
      <line x1="9.192436405" y1="46.7056870043" x2="7.0556374778" y2="45.1879568406" />
      <line x1="9.192436405" y1="46.7056870043" x2="11.3073885263" y2="48.2078997715" />
      <line x1="38.5179694586" y1="-12.8178367342" x2="36.3811705314" y2="-14.3355668979" />
      <line x1="38.5179694586" y1="-12.8178367342" x2="40.6329215799" y2="-11.315623967" />
    </g>
  </g>
</svg>